<?xml version="1.0" encoding="UTF-8" standalone="no"?>
<!DOCTYPE svg PUBLIC "-//W3C//DTD SVG 1.1//EN" "http://www.w3.org/Graphics/SVG/1.1/DTD/svg11.dtd">
<!-- Created with Vectornator (http://vectornator.io/) -->
<svg height="100%" stroke-miterlimit="10" style="fill-rule:nonzero;clip-rule:evenodd;stroke-linecap:round;stroke-linejoin:round;" version="1.1" viewBox="0 0 512 512" width="100%" xml:space="preserve" xmlns="http://www.w3.org/2000/svg" xmlns:vectornator="http://vectornator.io" xmlns:xlink="http://www.w3.org/1999/xlink">
<defs/>
<g id="Untitled" vectornator:layerName="Untitled">
<path d="M150 0L362 0C444.843 0 512 67.1573 512 150L512 362C512 444.843 444.843 512 362 512L150 512C67.1573 512 4.69349e-14 444.843 0 362L0 150C0 67.1573 67.1573 1.5218e-14 150 0Z" fill="#ffffff" fill-rule="nonzero" opacity="1" stroke="none" vectornator:layerName="rect"/>
<path d="M81.3598 179.789C82.594 175.854 83.8428 170.728 84.8447 165.501L84.9899 164.542C78.6444 172.529 81.9115 174.155 81.3598 179.6L81.3598 179.789ZM92.8019 131.508C94.0652 141.847 85.0044 146.029 94.7913 139.131C100.236 127.152 92.8019 135.864 92.9762 131.508L92.8019 131.508ZM264.159 40.3771C268.907 39.4769 274.817 38.7073 280.799 38.2426L281.395 38.1991C274.686 38.7508 267.963 39.1139 261.429 40.0141L264.144 40.3771L264.159 40.3771ZM421.213 234.604L419.95 237.319C417.844 252.29 413.445 265.823 407.099 278.18L407.433 277.469C414.287 265.068 419.093 250.577 420.981 235.185L421.039 234.604L421.213 234.604ZM222.616 277.832C220.394 275.116 218.506 272.009 217.083 268.64L216.982 268.393C218.927 274.477 221.57 279.777 224.91 284.555L224.779 284.366L222.601 277.832L222.616 277.832ZM211.362 278.383L210.462 283.466C214.789 290.392 219.581 296.389 224.982 301.791L224.982 301.791C220.626 293.267 217.359 289.811 211.377 278.195L211.362 278.383ZM390.691 226.443C390.284 236.419 387.787 245.727 383.619 254.047L383.794 253.655L377.448 256.937C372.366 266.738 378 263.282 374.37 271.094C365.628 279.734 356.016 287.502 345.677 294.269L344.98 294.705C341.336 294.705 347.521 290.174 348.422 288.533C337.691 295.794 339.695 299.424 323.548 303.954L322.996 302.865C316.201 305.188 308.359 306.539 300.213 306.539C260.151 306.539 227.669 274.056 227.669 233.994C227.669 233.704 227.669 233.399 227.669 233.108L227.669 233.152C227.132 236.23 226.405 235.504 225.491 236.782C225.345 235.156 225.258 233.268 225.258 231.351C225.258 205.911 239.997 183.898 261.415 173.429L261.792 173.255C269.778 169.145 279.217 166.749 289.207 166.749C304.686 166.749 318.829 172.514 329.574 182.025L329.516 181.967C318.321 167.548 300.983 158.357 281.511 158.357C281.032 158.357 280.553 158.357 280.073 158.371L280.146 158.371C259.57 158.56 241.681 169.871 232.185 186.585L232.039 186.86C221.149 193.758 219.886 213.535 215.167 217.005C214.179 221.898 213.613 227.518 213.613 233.268C213.613 265.576 231.502 293.688 257.915 308.267L258.351 308.485C263.244 311.926 259.803 312.289 260.529 314.83C249.609 309.574 240.374 302.488 232.853 293.877L232.765 293.775C236.831 300.15 241.638 305.595 247.17 310.198L247.286 310.285C237.31 307.018 224.242 286.689 220.438 285.789C237.31 315.905 289.033 338.789 315.896 327.521C313.514 327.695 310.741 327.797 307.953 327.797C295.683 327.797 283.878 325.837 272.828 322.206L273.626 322.439C267.644 319.535 259.658 313.189 260.921 312.1C272.973 317.313 287 320.333 301.738 320.333C326.946 320.333 350.077 311.476 368.199 296.708L368.01 296.854C375.996 290.508 384.883 279.792 387.424 279.618C383.794 285.426 388.15 282.522 385.246 287.604C393.232 274.535 381.616 282.159 393.595 265.097L397.951 271.08C396.325 260.189 411.383 247.106 409.931 230.03C413.372 224.585 413.561 235.475 409.931 247.629C415.187 234.197 411.383 232.208 412.646 221.143C414.098 224.265 415.521 228.055 416.668 231.961L416.828 232.571C416.61 230.814 416.494 228.767 416.494 226.69C416.494 218.254 418.498 210.282 422.041 203.24L421.91 203.545C420.284 202.644 416.828 208.99 416.102 193.932C416.102 187.223 417.917 190.302 418.643 188.85C414.984 184.61 412.501 179.266 411.76 173.371L411.746 173.226C413.198 170.873 415.739 179.208 417.917 179.397C416.305 173.792 415.013 167.127 414.33 160.288L414.287 159.794C408.116 147.452 412.109 161.609 407.027 154.349C400.855 134.557 412.472 149.819 413.198 140.917C420.937 153.768 427.079 168.666 430.797 184.508L431 185.568C428.807 173.414 425.729 162.698 421.707 152.461L422.113 153.637C425.018 154.901 417.394 131.116 425.918 146.929C414.229 112.428 390.662 84.5632 360.198 67.5886L359.472 67.2256C362.739 70.304 367.095 74.2971 365.454 74.8489C351.848 66.6884 354.201 66.1366 352.212 62.6952C341.147 58.1648 340.421 63.0582 332.972 62.6952C320.412 56.1755 305.717 50.2947 290.383 45.8804L288.655 45.4593L289.555 49.6267C275.587 45.0963 273.22 51.4418 258.162 49.6267C257.247 48.9007 263.055 47.0856 267.775 46.3596C254.329 48.1747 255.055 43.8185 241.812 46.9114C244.629 44.9947 247.896 43.0634 251.279 41.3355L251.787 41.1032C240.897 41.8292 225.665 47.4486 230.37 42.3665C204.581 51.6886 182.234 63.9004 162.167 78.9582L162.835 78.4791L162.312 74.4859C154.151 84.2873 126.751 103.716 124.573 116.421L122.192 116.959C118.024 124.219 115.294 132.379 111.853 139.843C106.408 149.281 103.692 143.473 104.593 144.925C96.8387 160.694 89.68 179.382 84.1477 198.767L83.5524 201.221C84.6269 211.255 85.2367 222.9 85.2367 234.691C85.2367 240.528 85.0915 246.337 84.7866 252.101L84.8156 251.288C84.7721 252.9 84.743 254.802 84.743 256.719C84.743 354.689 147.486 438.008 234.987 468.675L236.555 469.154C248.332 472.102 261.865 473.801 275.79 473.801C277.881 473.801 279.972 473.757 282.034 473.685L281.729 473.699C263.767 468.617 261.4 470.984 243.99 464.813C231.284 459.005 228.569 452.107 219.668 444.31L223.298 450.655C205.685 444.484 212.959 443.032 198.599 438.501L202.403 433.608C194.867 430.864 188.754 425.694 184.891 419.073L184.804 418.913L178.633 419.088C171.198 409.998 167.205 403.289 167.568 398.018L165.55 401.648C163.198 397.844 137.975 367.148 151.029 374.234C147.283 371.634 144.219 368.295 142.027 364.403L141.954 364.258L144.495 361.18C139.21 355.183 135.304 347.85 133.314 339.747L133.242 339.399C135.144 342.274 137.975 344.408 141.301 345.367L141.402 345.396C125.43 305.987 124.529 343.218 112.347 305.435L115.062 305.072C113.552 302.546 111.969 299.511 110.575 296.374L110.343 295.808L111.432 284.918C100.004 271.486 108.165 228.636 109.806 205.04C114.713 191.042 120.101 179.179 126.388 167.882L125.764 169.087L121.959 168.361C129.219 155.482 164.432 116.247 180.767 118.265C188.565 108.29 179.141 118.265 177.5 115.724C194.925 97.7478 200.37 103.019 212.001 99.7517C224.707 92.4769 201.111 102.656 207.108 97.0073C228.889 91.5621 222.529 84.3018 251.032 81.5865C253.936 83.4015 243.961 84.1275 241.594 86.3056C252.034 82.9514 264.028 81.0056 276.487 81.0056C293.824 81.0056 310.291 84.7665 325.116 91.504L324.376 91.1991C359.109 109.713 383.489 143.72 388.382 183.738L388.44 184.319L389.892 184.682C390.241 188.806 390.444 193.612 390.444 198.462C390.444 210.994 389.123 223.22 386.611 235.011L386.814 233.863L390.444 226.24L390.691 226.443ZM270.519 46.0111L267.804 46.5484L270.345 46.3741L270.345 46.0111L270.519 46.0111ZM262.896 43.833C266.526 44.5591 271.056 45.0963 270.519 46.0111C274.686 45.1108 275.601 44.196 262.721 43.833L262.896 43.833ZM343.136 221.565C344.036 208.482 340.595 212.475 339.506 217.557C340.769 218.283 341.858 226.632 343.136 221.55L343.136 221.565ZM328.964 258.766C332.943 253.321 335.919 246.859 337.43 239.86L337.488 239.526C336.05 244.565 334.003 248.965 331.389 252.958L331.505 252.769C317.899 261.293 330.242 247.876 331.505 242.605C316.985 260.93 329.516 253.495 328.964 258.752L328.964 258.766ZM290.107 268.379C282.847 268.379 291.559 272.009 301.012 273.461C303.626 271.501 305.935 269.54 308.113 267.449L308.084 267.478C304.57 268.292 300.533 268.742 296.395 268.742C294.187 268.742 292.009 268.611 289.86 268.35L290.122 268.379L290.107 268.379Z" fill="#000000" fill-rule="nonzero" opacity="1" stroke="none" vectornator:layerName="path"/>
</g>
</svg>
