<?xml version="1.0" encoding="UTF-8" standalone="no"?>
<svg xmlns="http://www.w3.org/2000/svg"
     xmlns:xlink="http://www.w3.org/1999/xlink"
     width="657pt" height="421pt" viewBox="0 0 657 421">
<title>small_tri6_mesh</title>
<desc>
Creator: GL2PS 1.4.3, (C) 1999-2020 C. Geuzaine
For: Gmsh
CreationDate: Thu Jun  5 08:36:26 2025
</desc>
<defs>
</defs>
<g>
<circle fill="#5a5a5a" cx="178.143" cy="360.857" r="2"/>
<circle fill="#5a5a5a" cx="478.857" cy="360.857" r="2"/>
<circle fill="#5a5a5a" cx="478.857" cy="60.1429" r="2"/>
<circle fill="#5a5a5a" cx="178.143" cy="60.1429" r="2"/>
<circle fill="#0000ff" cx="178.143" cy="360.857" r="2"/>
<circle fill="#0000ff" cx="478.857" cy="360.857" r="2"/>
<circle fill="#0000ff" cx="478.857" cy="60.1429" r="2"/>
<circle fill="#0000ff" cx="178.143" cy="60.1429" r="2"/>
<circle fill="#0000ff" cx="328.5" cy="360.857" r="2"/>
<circle fill="#ff00ff" cx="253.321" cy="360.857" r="2"/>
<circle fill="#ff00ff" cx="403.679" cy="360.857" r="2"/>
<circle fill="#0000ff" cx="478.857" cy="210.5" r="2"/>
<circle fill="#ff00ff" cx="478.857" cy="285.679" r="2"/>
<circle fill="#ff00ff" cx="478.857" cy="135.321" r="2"/>
<circle fill="#0000ff" cx="328.5" cy="60.1429" r="2"/>
<circle fill="#ff00ff" cx="403.679" cy="60.1429" r="2"/>
<circle fill="#ff00ff" cx="253.321" cy="60.1429" r="2"/>
<circle fill="#0000ff" cx="178.143" cy="210.5" r="2"/>
<circle fill="#ff00ff" cx="178.143" cy="135.321" r="2"/>
<circle fill="#ff00ff" cx="178.143" cy="285.679" r="2"/>
<text fill="#555555" x="443.565" y="145.972" font-size="15" text-anchor="start" dy="0" font-family="Helvetica">13</text>
<text fill="#555555" x="215.732" y="273.149" font-size="15" text-anchor="start" dy="0" font-family="Helvetica">14</text>
<text fill="#555555" x="265.851" y="323.268" font-size="15" text-anchor="start" dy="0" font-family="Helvetica">15</text>
<text fill="#555555" x="393.446" y="95.8527" font-size="15" text-anchor="start" dy="0" font-family="Helvetica">16</text>
<text fill="#555555" x="400.546" y="332.665" font-size="15" text-anchor="start" dy="0" font-family="Helvetica">17</text>
<text fill="#555555" x="450.665" y="282.546" font-size="15" text-anchor="start" dy="0" font-family="Helvetica">18</text>
<text fill="#555555" x="257.707" y="89.5878" font-size="15" text-anchor="start" dy="0" font-family="Helvetica">19</text>
<text fill="#555555" x="207.588" y="139.707" font-size="15" text-anchor="start" dy="0" font-family="Helvetica">20</text>
<text fill="#555555" x="415.373" y="218.018" font-size="15" text-anchor="start" dy="0" font-family="Helvetica">21</text>
<text fill="#555555" x="245.177" y="202.356" font-size="15" text-anchor="start" dy="0" font-family="Helvetica">22</text>
<text fill="#555555" x="310.123" y="187.946" font-size="15" text-anchor="start" dy="0" font-family="Helvetica">23</text>
<text fill="#555555" x="337.897" y="295.076" font-size="15" text-anchor="start" dy="0" font-family="Helvetica">24</text>
<text fill="#555555" x="352.724" y="230.548" font-size="15" text-anchor="start" dy="0" font-family="Helvetica">25</text>
<text fill="#555555" x="322.653" y="125.298" font-size="15" text-anchor="start" dy="0" font-family="Helvetica">26</text>
<circle fill="#0000ff" cx="266.478" cy="148.478" r="2"/>
<circle fill="#0000ff" cx="290.911" cy="248.089" r="2"/>
<circle fill="#0000ff" cx="372.981" cy="167.272" r="2"/>
<circle fill="#0000ff" cx="394.281" cy="276.281" r="2"/>
<circle fill="#ff00ff" cx="425.919" cy="113.708" r="2"/>
<circle fill="#ff00ff" cx="425.919" cy="188.886" r="2"/>
<circle fill="#ff00ff" cx="234.527" cy="304.473" r="2"/>
<circle fill="#ff00ff" cx="234.527" cy="229.295" r="2"/>
<circle fill="#ff00ff" cx="309.705" cy="304.473" r="2"/>
<circle fill="#ff00ff" cx="350.74" cy="113.708" r="2"/>
<circle fill="#ff00ff" cx="436.569" cy="318.569" r="2"/>
<circle fill="#ff00ff" cx="361.391" cy="318.569" r="2"/>
<circle fill="#ff00ff" cx="436.569" cy="243.391" r="2"/>
<circle fill="#ff00ff" cx="222.31" cy="104.31" r="2"/>
<circle fill="#ff00ff" cx="297.489" cy="104.31" r="2"/>
<circle fill="#ff00ff" cx="222.31" cy="179.489" r="2"/>
<circle fill="#ff00ff" cx="383.631" cy="221.777" r="2"/>
<circle fill="#ff00ff" cx="278.694" cy="198.283" r="2"/>
<circle fill="#ff00ff" cx="331.946" cy="207.681" r="2"/>
<circle fill="#ff00ff" cx="319.729" cy="157.875" r="2"/>
<circle fill="#ff00ff" cx="342.596" cy="262.185" r="2"/>
<polyline fill="none" stroke="#000000" stroke-width="1" stroke-linecap="butt" stroke-linejoin="miter" points="178.143,360.857 328.5,360.857 478.857,360.857 478.857,210.5 478.857,60.1429 328.5,60.1429 178.143,60.1429 178.143,210.5 178.143,360.857"/>
<polyline fill="none" stroke="#aba1ff" stroke-width="1" stroke-linecap="butt" stroke-linejoin="miter" points="478.857,210.5 478.857,60.1429 372.981,167.272 478.857,210.5"/>
<polyline fill="none" stroke="#aba1ff" stroke-width="1" stroke-linecap="butt" stroke-linejoin="miter" points="178.143,210.5 178.143,360.857 290.911,248.089 178.143,210.5"/>
<polyline fill="none" stroke="#aba1ff" stroke-width="1" stroke-linecap="butt" stroke-linejoin="miter" points="178.143,360.857 328.5,360.857 290.911,248.089 178.143,360.857"/>
<polyline fill="none" stroke="#aba1ff" stroke-width="1" stroke-linecap="butt" stroke-linejoin="miter" points="478.857,60.1429 328.5,60.1429 372.981,167.272 478.857,60.1429"/>
<polyline fill="none" stroke="#aba1ff" stroke-width="1" stroke-linecap="butt" stroke-linejoin="miter" points="328.5,360.857 478.857,360.857 394.281,276.281 328.5,360.857"/>
<polyline fill="none" stroke="#aba1ff" stroke-width="1" stroke-linecap="butt" stroke-linejoin="miter" points="478.857,360.857 478.857,210.5 394.281,276.281 478.857,360.857"/>
<polyline fill="none" stroke="#aba1ff" stroke-width="1" stroke-linecap="butt" stroke-linejoin="miter" points="328.5,60.1429 178.143,60.1429 266.478,148.478 328.5,60.1429"/>
<polyline fill="none" stroke="#aba1ff" stroke-width="1" stroke-linecap="butt" stroke-linejoin="miter" points="178.143,60.1429 178.143,210.5 266.478,148.478 178.143,60.1429"/>
<polyline fill="none" stroke="#aba1ff" stroke-width="1" stroke-linecap="butt" stroke-linejoin="miter" points="478.857,210.5 372.981,167.272 394.281,276.281 478.857,210.5"/>
<polyline fill="none" stroke="#aba1ff" stroke-width="1" stroke-linecap="butt" stroke-linejoin="miter" points="266.478,148.478 178.143,210.5 290.911,248.089 266.478,148.478 290.911,248.089 372.981,167.272 266.478,148.478"/>
<polyline fill="none" stroke="#aba1ff" stroke-width="1" stroke-linecap="butt" stroke-linejoin="miter" points="290.911,248.089 328.5,360.857 394.281,276.281 290.911,248.089"/>
<polyline fill="none" stroke="#aba1ff" stroke-width="1" stroke-linecap="butt" stroke-linejoin="miter" points="372.981,167.272 290.911,248.089 394.281,276.281 372.981,167.272"/>
<polyline fill="none" stroke="#aba1ff" stroke-width="1" stroke-linecap="butt" stroke-linejoin="miter" points="328.5,60.1429 266.478,148.478 372.981,167.272 328.5,60.1429"/>
<text fill="#0000ff" x="181.643" y="357.357" font-size="15" text-anchor="start" dy="0" font-family="Helvetica">1</text>
<text fill="#0000ff" x="482.357" y="357.357" font-size="15" text-anchor="start" dy="0" font-family="Helvetica">2</text>
<text fill="#0000ff" x="482.357" y="56.6428" font-size="15" text-anchor="start" dy="0" font-family="Helvetica">3</text>
<text fill="#0000ff" x="181.643" y="56.6428" font-size="15" text-anchor="start" dy="0" font-family="Helvetica">4</text>
<text fill="#0000ff" x="332" y="357.357" font-size="15" text-anchor="start" dy="0" font-family="Helvetica">5</text>
<text fill="#ff00ff" x="256.821" y="357.357" font-size="15" text-anchor="start" dy="0" font-family="Helvetica">6</text>
<text fill="#ff00ff" x="407.179" y="357.357" font-size="15" text-anchor="start" dy="0" font-family="Helvetica">7</text>
<text fill="#0000ff" x="482.357" y="207" font-size="15" text-anchor="start" dy="0" font-family="Helvetica">8</text>
<text fill="#ff00ff" x="482.357" y="282.179" font-size="15" text-anchor="start" dy="0" font-family="Helvetica">9</text>
<text fill="#ff00ff" x="482.357" y="131.821" font-size="15" text-anchor="start" dy="0" font-family="Helvetica">10</text>
<text fill="#0000ff" x="332" y="56.6428" font-size="15" text-anchor="start" dy="0" font-family="Helvetica">11</text>
<text fill="#ff00ff" x="407.179" y="56.6428" font-size="15" text-anchor="start" dy="0" font-family="Helvetica">12</text>
<text fill="#ff00ff" x="256.821" y="56.6428" font-size="15" text-anchor="start" dy="0" font-family="Helvetica">13</text>
<text fill="#0000ff" x="181.643" y="207" font-size="15" text-anchor="start" dy="0" font-family="Helvetica">14</text>
<text fill="#ff00ff" x="181.643" y="131.821" font-size="15" text-anchor="start" dy="0" font-family="Helvetica">15</text>
<text fill="#ff00ff" x="181.643" y="282.179" font-size="15" text-anchor="start" dy="0" font-family="Helvetica">16</text>
<text fill="#0000ff" x="269.978" y="144.978" font-size="15" text-anchor="start" dy="0" font-family="Helvetica">17</text>
<text fill="#0000ff" x="294.411" y="244.589" font-size="15" text-anchor="start" dy="0" font-family="Helvetica">18</text>
<text fill="#0000ff" x="376.481" y="163.772" font-size="15" text-anchor="start" dy="0" font-family="Helvetica">19</text>
<text fill="#0000ff" x="397.781" y="272.781" font-size="15" text-anchor="start" dy="0" font-family="Helvetica">20</text>
<text fill="#ff00ff" x="429.419" y="110.208" font-size="15" text-anchor="start" dy="0" font-family="Helvetica">21</text>
<text fill="#ff00ff" x="429.419" y="185.386" font-size="15" text-anchor="start" dy="0" font-family="Helvetica">22</text>
<text fill="#ff00ff" x="238.027" y="300.973" font-size="15" text-anchor="start" dy="0" font-family="Helvetica">23</text>
<text fill="#ff00ff" x="238.027" y="225.795" font-size="15" text-anchor="start" dy="0" font-family="Helvetica">24</text>
<text fill="#ff00ff" x="313.205" y="300.973" font-size="15" text-anchor="start" dy="0" font-family="Helvetica">25</text>
<text fill="#ff00ff" x="354.24" y="110.208" font-size="15" text-anchor="start" dy="0" font-family="Helvetica">26</text>
<text fill="#ff00ff" x="440.069" y="315.069" font-size="15" text-anchor="start" dy="0" font-family="Helvetica">27</text>
<text fill="#ff00ff" x="364.891" y="315.069" font-size="15" text-anchor="start" dy="0" font-family="Helvetica">28</text>
<text fill="#ff00ff" x="440.069" y="239.891" font-size="15" text-anchor="start" dy="0" font-family="Helvetica">29</text>
<text fill="#ff00ff" x="225.81" y="100.81" font-size="15" text-anchor="start" dy="0" font-family="Helvetica">30</text>
<text fill="#ff00ff" x="300.989" y="100.81" font-size="15" text-anchor="start" dy="0" font-family="Helvetica">31</text>
<text fill="#ff00ff" x="225.81" y="175.989" font-size="15" text-anchor="start" dy="0" font-family="Helvetica">32</text>
<text fill="#ff00ff" x="387.131" y="218.277" font-size="15" text-anchor="start" dy="0" font-family="Helvetica">33</text>
<text fill="#ff00ff" x="282.194" y="194.783" font-size="15" text-anchor="start" dy="0" font-family="Helvetica">34</text>
<text fill="#ff00ff" x="335.446" y="204.181" font-size="15" text-anchor="start" dy="0" font-family="Helvetica">35</text>
<text fill="#ff00ff" x="323.229" y="154.375" font-size="15" text-anchor="start" dy="0" font-family="Helvetica">36</text>
<text fill="#ff00ff" x="346.096" y="258.685" font-size="15" text-anchor="start" dy="0" font-family="Helvetica">37</text>
</g>
</svg>
