<?xml version="1.0" encoding="UTF-8" standalone="no"?>
<svg xmlns="http://www.w3.org/2000/svg"
     xmlns:xlink="http://www.w3.org/1999/xlink"
     width="1314pt" height="1442pt" viewBox="0 0 1314 1442">
<title>small_tri3_mesh</title>
<desc>
Creator: GL2PS 1.4.3, (C) 1999-2020 C. Geuzaine
For: Gmsh
CreationDate: Sat May 31 00:31:35 2025
</desc>
<defs>
</defs>
<g>
<circle fill="#5a5a5a" cx="187.714" cy="1190.29" r="2"/>
<circle fill="#5a5a5a" cx="1126.29" cy="1190.29" r="2"/>
<circle fill="#5a5a5a" cx="1126.29" cy="251.714" r="2"/>
<circle fill="#5a5a5a" cx="187.714" cy="251.714" r="2"/>
<circle fill="#0000ff" cx="187.714" cy="1190.29" r="2"/>
<circle fill="#0000ff" cx="1126.29" cy="1190.29" r="2"/>
<circle fill="#0000ff" cx="1126.29" cy="251.714" r="2"/>
<circle fill="#0000ff" cx="187.714" cy="251.714" r="2"/>
<text fill="#555555" x="422.357" y="1190.29" font-size="15" text-anchor="start" dy="0" font-family="Helvetica">5</text>
<text fill="#555555" x="891.643" y="1190.29" font-size="15" text-anchor="start" dy="0" font-family="Helvetica">6</text>
<circle fill="#0000ff" cx="657" cy="1190.29" r="2"/>
<text fill="#555555" x="1126.29" y="955.643" font-size="15" text-anchor="start" dy="0" font-family="Helvetica">7</text>
<text fill="#555555" x="1126.29" y="486.357" font-size="15" text-anchor="start" dy="0" font-family="Helvetica">8</text>
<circle fill="#0000ff" cx="1126.29" cy="721" r="2"/>
<text fill="#555555" x="891.643" y="251.714" font-size="15" text-anchor="start" dy="0" font-family="Helvetica">9</text>
<text fill="#555555" x="422.357" y="251.714" font-size="15" text-anchor="start" dy="0" font-family="Helvetica">10</text>
<circle fill="#0000ff" cx="657" cy="251.714" r="2"/>
<text fill="#555555" x="187.714" y="486.357" font-size="15" text-anchor="start" dy="0" font-family="Helvetica">11</text>
<text fill="#555555" x="187.714" y="955.643" font-size="15" text-anchor="start" dy="0" font-family="Helvetica">12</text>
<circle fill="#0000ff" cx="187.714" cy="721" r="2"/>
<text fill="#555555" x="1016.13" y="519.598" font-size="15" text-anchor="start" dy="0" font-family="Helvetica">13</text>
<text fill="#555555" x="305.036" y="916.536" font-size="15" text-anchor="start" dy="0" font-family="Helvetica">14</text>
<text fill="#555555" x="461.464" y="1072.96" font-size="15" text-anchor="start" dy="0" font-family="Helvetica">15</text>
<text fill="#555555" x="859.705" y="363.17" font-size="15" text-anchor="start" dy="0" font-family="Helvetica">16</text>
<text fill="#555555" x="881.866" y="1102.29" font-size="15" text-anchor="start" dy="0" font-family="Helvetica">17</text>
<text fill="#555555" x="1038.29" y="945.866" font-size="15" text-anchor="start" dy="0" font-family="Helvetica">18</text>
<text fill="#555555" x="436.045" y="343.616" font-size="15" text-anchor="start" dy="0" font-family="Helvetica">19</text>
<text fill="#555555" x="279.616" y="500.045" font-size="15" text-anchor="start" dy="0" font-family="Helvetica">20</text>
<text fill="#555555" x="928.143" y="744.464" font-size="15" text-anchor="start" dy="0" font-family="Helvetica">21</text>
<text fill="#555555" x="396.938" y="695.58" font-size="15" text-anchor="start" dy="0" font-family="Helvetica">22</text>
<text fill="#555555" x="599.643" y="650.607" font-size="15" text-anchor="start" dy="0" font-family="Helvetica">23</text>
<text fill="#555555" x="686.33" y="984.973" font-size="15" text-anchor="start" dy="0" font-family="Helvetica">24</text>
<text fill="#555555" x="732.607" y="783.571" font-size="15" text-anchor="start" dy="0" font-family="Helvetica">25</text>
<text fill="#555555" x="638.75" y="455.071" font-size="15" text-anchor="start" dy="0" font-family="Helvetica">26</text>
<circle fill="#0000ff" cx="463.42" cy="527.42" r="2"/>
<circle fill="#0000ff" cx="539.679" cy="838.321" r="2"/>
<circle fill="#0000ff" cx="795.83" cy="586.08" r="2"/>
<circle fill="#0000ff" cx="862.312" cy="926.312" r="2"/>
<polyline fill="none" stroke="#000000" stroke-width="1" stroke-linecap="butt" stroke-linejoin="miter" points="187.714,1190.29 657,1190.29 1126.29,1190.29 1126.29,721 1126.29,251.714 657,251.714 187.714,251.714 187.714,721 187.714,1190.29"/>
<polyline fill="none" stroke="#aba1ff" stroke-width="1" stroke-linecap="butt" stroke-linejoin="miter" points="1126.29,721 1126.29,251.714 795.83,586.08 1126.29,721"/>
<polyline fill="none" stroke="#aba1ff" stroke-width="1" stroke-linecap="butt" stroke-linejoin="miter" points="187.714,721 187.714,1190.29 539.679,838.321 187.714,721"/>
<polyline fill="none" stroke="#aba1ff" stroke-width="1" stroke-linecap="butt" stroke-linejoin="miter" points="187.714,1190.29 657,1190.29 539.679,838.321 187.714,1190.29"/>
<polyline fill="none" stroke="#aba1ff" stroke-width="1" stroke-linecap="butt" stroke-linejoin="miter" points="1126.29,251.714 657,251.714 795.83,586.08 1126.29,251.714"/>
<polyline fill="none" stroke="#aba1ff" stroke-width="1" stroke-linecap="butt" stroke-linejoin="miter" points="657,1190.29 1126.29,1190.29 862.312,926.312 657,1190.29"/>
<polyline fill="none" stroke="#aba1ff" stroke-width="1" stroke-linecap="butt" stroke-linejoin="miter" points="1126.29,1190.29 1126.29,721 862.312,926.312 1126.29,1190.29"/>
<polyline fill="none" stroke="#aba1ff" stroke-width="1" stroke-linecap="butt" stroke-linejoin="miter" points="657,251.714 187.714,251.714 463.42,527.42 657,251.714"/>
<polyline fill="none" stroke="#aba1ff" stroke-width="1" stroke-linecap="butt" stroke-linejoin="miter" points="187.714,251.714 187.714,721 463.42,527.42 187.714,251.714"/>
<polyline fill="none" stroke="#aba1ff" stroke-width="1" stroke-linecap="butt" stroke-linejoin="miter" points="1126.29,721 795.83,586.08 862.312,926.312 1126.29,721"/>
<polyline fill="none" stroke="#aba1ff" stroke-width="1" stroke-linecap="butt" stroke-linejoin="miter" points="463.42,527.42 187.714,721 539.679,838.321 463.42,527.42 539.679,838.321 795.83,586.08 463.42,527.42"/>
<polyline fill="none" stroke="#aba1ff" stroke-width="1" stroke-linecap="butt" stroke-linejoin="miter" points="539.679,838.321 657,1190.29 862.312,926.312 539.679,838.321"/>
<polyline fill="none" stroke="#aba1ff" stroke-width="1" stroke-linecap="butt" stroke-linejoin="miter" points="795.83,586.08 539.679,838.321 862.312,926.312 795.83,586.08"/>
<polyline fill="none" stroke="#aba1ff" stroke-width="1" stroke-linecap="butt" stroke-linejoin="miter" points="657,251.714 463.42,527.42 795.83,586.08 657,251.714"/>
<text fill="#0000ff" x="194.714" y="1183.29" font-size="15" text-anchor="start" dy="0" font-family="Helvetica">1</text>
<text fill="#0000ff" x="1133.29" y="1183.29" font-size="15" text-anchor="start" dy="0" font-family="Helvetica">2</text>
<text fill="#0000ff" x="1133.29" y="244.714" font-size="15" text-anchor="start" dy="0" font-family="Helvetica">3</text>
<text fill="#0000ff" x="194.714" y="244.714" font-size="15" text-anchor="start" dy="0" font-family="Helvetica">4</text>
<text fill="#0000ff" x="664" y="1183.29" font-size="15" text-anchor="start" dy="0" font-family="Helvetica">5</text>
<text fill="#0000ff" x="1133.29" y="714" font-size="15" text-anchor="start" dy="0" font-family="Helvetica">6</text>
<text fill="#0000ff" x="664" y="244.714" font-size="15" text-anchor="start" dy="0" font-family="Helvetica">7</text>
<text fill="#0000ff" x="194.714" y="714" font-size="15" text-anchor="start" dy="0" font-family="Helvetica">8</text>
<text fill="#0000ff" x="470.42" y="520.42" font-size="15" text-anchor="start" dy="0" font-family="Helvetica">9</text>
<text fill="#0000ff" x="546.679" y="831.321" font-size="15" text-anchor="start" dy="0" font-family="Helvetica">10</text>
<text fill="#0000ff" x="802.83" y="579.08" font-size="15" text-anchor="start" dy="0" font-family="Helvetica">11</text>
<text fill="#0000ff" x="869.312" y="919.312" font-size="15" text-anchor="start" dy="0" font-family="Helvetica">12</text>
</g>
</svg>
