<?xml version="1.0" encoding="UTF-8" standalone="no"?>
<svg xmlns="http://www.w3.org/2000/svg"
     xmlns:xlink="http://www.w3.org/1999/xlink"
     width="1314pt" height="1442pt" viewBox="0 0 1314 1442">
<title>very_small_quad4_mesh_two_region</title>
<desc>
Creator: GL2PS 1.4.3, (C) 1999-2020 C. Geuzaine
For: Gmsh
CreationDate: Sat May 31 00:45:23 2025
</desc>
<defs>
</defs>
<g>
<circle fill="#5a5a5a" cx="187.714" cy="955.643" r="2"/>
<circle fill="#5a5a5a" cx="657" cy="955.643" r="2"/>
<circle fill="#5a5a5a" cx="1126.29" cy="955.643" r="2"/>
<circle fill="#5a5a5a" cx="187.714" cy="486.357" r="2"/>
<circle fill="#5a5a5a" cx="657" cy="486.357" r="2"/>
<circle fill="#5a5a5a" cx="1126.29" cy="486.357" r="2"/>
<circle fill="#0000ff" cx="187.714" cy="955.643" r="2"/>
<circle fill="#0000ff" cx="657" cy="955.643" r="2"/>
<circle fill="#0000ff" cx="1126.29" cy="955.643" r="2"/>
<circle fill="#0000ff" cx="187.714" cy="486.357" r="2"/>
<circle fill="#0000ff" cx="657" cy="486.357" r="2"/>
<circle fill="#0000ff" cx="1126.29" cy="486.357" r="2"/>
<text fill="#555555" x="305.036" y="955.643" font-size="15" text-anchor="start" dy="0" font-family="Helvetica">7</text>
<text fill="#555555" x="539.679" y="955.643" font-size="15" text-anchor="start" dy="0" font-family="Helvetica">8</text>
<circle fill="#0000ff" cx="422.357" cy="955.643" r="2"/>
<text fill="#555555" x="774.321" y="955.643" font-size="15" text-anchor="start" dy="0" font-family="Helvetica">9</text>
<text fill="#555555" x="1008.96" y="955.643" font-size="15" text-anchor="start" dy="0" font-family="Helvetica">10</text>
<circle fill="#0000ff" cx="891.643" cy="955.643" r="2"/>
<text fill="#555555" x="305.036" y="486.357" font-size="15" text-anchor="start" dy="0" font-family="Helvetica">11</text>
<text fill="#555555" x="539.679" y="486.357" font-size="15" text-anchor="start" dy="0" font-family="Helvetica">12</text>
<circle fill="#0000ff" cx="422.357" cy="486.357" r="2"/>
<text fill="#555555" x="774.321" y="486.357" font-size="15" text-anchor="start" dy="0" font-family="Helvetica">13</text>
<text fill="#555555" x="1008.96" y="486.357" font-size="15" text-anchor="start" dy="0" font-family="Helvetica">14</text>
<circle fill="#0000ff" cx="891.643" cy="486.357" r="2"/>
<text fill="#555555" x="187.714" y="721" font-size="15" text-anchor="start" dy="0" font-family="Helvetica">15</text>
<text fill="#555555" x="657" y="721" font-size="15" text-anchor="start" dy="0" font-family="Helvetica">16</text>
<text fill="#555555" x="1126.29" y="721" font-size="15" text-anchor="start" dy="0" font-family="Helvetica">17</text>
<text fill="#555555" x="305.036" y="721" font-size="15" text-anchor="start" dy="0" font-family="Helvetica">18</text>
<text fill="#555555" x="539.679" y="721" font-size="15" text-anchor="start" dy="0" font-family="Helvetica">19</text>
<text fill="#555555" x="774.321" y="721" font-size="15" text-anchor="start" dy="0" font-family="Helvetica">20</text>
<text fill="#555555" x="1008.96" y="721" font-size="15" text-anchor="start" dy="0" font-family="Helvetica">21</text>
<polyline fill="none" stroke="#000000" stroke-width="1" stroke-linecap="butt" stroke-linejoin="miter" points="187.714,955.643 422.357,955.643 657,955.643 891.643,955.643 1126.29,955.643"/>
<polyline fill="none" stroke="#000000" stroke-width="1" stroke-linecap="butt" stroke-linejoin="miter" points="187.714,486.357 422.357,486.357 657,486.357 891.643,486.357 1126.29,486.357"/>
<polyline fill="none" stroke="#000000" stroke-width="1" stroke-linecap="butt" stroke-linejoin="miter" points="187.714,955.643 187.714,486.357"/>
<polyline fill="none" stroke="#000000" stroke-width="1" stroke-linecap="butt" stroke-linejoin="miter" points="657,955.643 657,486.357"/>
<polyline fill="none" stroke="#000000" stroke-width="1" stroke-linecap="butt" stroke-linejoin="miter" points="1126.29,955.643 1126.29,486.357"/>
<polyline fill="none" stroke="#8c82ee" stroke-width="1" stroke-linecap="butt" stroke-linejoin="miter" points="187.714,955.643 422.357,955.643 422.357,486.357 187.714,486.357 187.714,955.643"/>
<polyline fill="none" stroke="#8c82ee" stroke-width="1" stroke-linecap="butt" stroke-linejoin="miter" points="422.357,955.643 657,955.643 657,486.357 422.357,486.357 422.357,955.643"/>
<polyline fill="none" stroke="#8c82ee" stroke-width="1" stroke-linecap="butt" stroke-linejoin="miter" points="657,955.643 891.643,955.643 891.643,486.357 657,486.357 657,955.643"/>
<polyline fill="none" stroke="#8c82ee" stroke-width="1" stroke-linecap="butt" stroke-linejoin="miter" points="891.643,955.643 1126.29,955.643 1126.29,486.357 891.643,486.357 891.643,955.643"/>
<text fill="#0000ff" x="194.714" y="948.643" font-size="15" text-anchor="start" dy="0" font-family="Helvetica">1</text>
<text fill="#0000ff" x="664" y="948.643" font-size="15" text-anchor="start" dy="0" font-family="Helvetica">2</text>
<text fill="#0000ff" x="1133.29" y="948.643" font-size="15" text-anchor="start" dy="0" font-family="Helvetica">3</text>
<text fill="#0000ff" x="194.714" y="479.357" font-size="15" text-anchor="start" dy="0" font-family="Helvetica">4</text>
<text fill="#0000ff" x="664" y="479.357" font-size="15" text-anchor="start" dy="0" font-family="Helvetica">5</text>
<text fill="#0000ff" x="1133.29" y="479.357" font-size="15" text-anchor="start" dy="0" font-family="Helvetica">6</text>
<text fill="#0000ff" x="429.357" y="948.643" font-size="15" text-anchor="start" dy="0" font-family="Helvetica">7</text>
<text fill="#0000ff" x="898.643" y="948.643" font-size="15" text-anchor="start" dy="0" font-family="Helvetica">8</text>
<text fill="#0000ff" x="429.357" y="479.357" font-size="15" text-anchor="start" dy="0" font-family="Helvetica">9</text>
<text fill="#0000ff" x="898.643" y="479.357" font-size="15" text-anchor="start" dy="0" font-family="Helvetica">10</text>
</g>
</svg>
