<?xml version="1.0" encoding="UTF-8" standalone="no"?>
<!DOCTYPE svg PUBLIC "-//W3C//DTD SVG 1.1//EN" "http://www.w3.org/Graphics/SVG/1.1/DTD/svg11.dtd">
<!-- Created with Vectornator (http://vectornator.io/) -->
<svg height="100%" stroke-miterlimit="10" style="fill-rule:nonzero;clip-rule:evenodd;stroke-linecap:round;stroke-linejoin:round;" version="1.1" viewBox="0 0 2000 500" width="100%" xml:space="preserve" xmlns="http://www.w3.org/2000/svg" xmlns:vectornator="http://vectornator.io" xmlns:xlink="http://www.w3.org/1999/xlink">
<defs/>
<g id="layer1" vectornator:layerName="layer1">
<g opacity="1" vectornator:layerName="Group 11">
<g opacity="1" vectornator:layerName="Group 10">
<g opacity="1" vectornator:layerName="Group 1">
<path d="M58.7867 116.344L141.474 75L224.161 116.344L141.474 157.687L58.7867 116.344Z" fill="#eba0ac" fill-rule="nonzero" opacity="1" stroke="none" vectornator:layerName="Curve 1"/>
<path d="M144.962 163.501L227.65 122.158L227.65 225.517L144.962 266.86L144.962 163.501Z" fill="#f38ba8" fill-rule="nonzero" opacity="1" stroke="none" vectornator:layerName="Curve 2"/>
<path d="M55.2983 122.158L137.986 163.501L137.986 266.86L55.2983 225.517L55.2983 122.158Z" fill="#eba0ac" fill-rule="nonzero" opacity="1" stroke="none" vectornator:layerName="Curve 3"/>
</g>
<g opacity="1" vectornator:layerName="Group 8">
<path d="M149.484 274.483L232.172 233.14L314.859 274.483L232.172 315.827L149.484 274.483Z" fill="#a6adc8" fill-rule="nonzero" opacity="1" stroke="none" vectornator:layerName="Curve 1"/>
<path d="M235.66 321.641L318.347 280.297L318.347 383.656L235.66 425L235.66 321.641Z" fill="#585b70" fill-rule="nonzero" opacity="1" stroke="none" vectornator:layerName="Curve 2"/>
<path d="M145.996 280.297L228.683 321.641L228.683 425L145.996 383.656L145.996 280.297Z" fill="#6c7086" fill-rule="nonzero" opacity="1" stroke="none" vectornator:layerName="Curve 3"/>
</g>
<g opacity="1" vectornator:layerName="Group 9">
<path d="M239.278 117.506L321.965 76.1628L404.652 117.506L321.965 158.85L239.278 117.506Z" fill="#b4befe" fill-rule="nonzero" opacity="1" stroke="none" vectornator:layerName="Curve 1"/>
<path d="M325.453 164.664L408.141 123.32L408.141 226.68L325.453 268.023L325.453 164.664Z" fill="#b4befe" fill-rule="nonzero" opacity="1" stroke="none" vectornator:layerName="Curve 2"/>
<path d="M235.789 123.32L318.477 164.664L318.477 268.023L235.789 226.68L235.789 123.32Z" fill="#cba6f7" fill-rule="nonzero" opacity="1" stroke="none" vectornator:layerName="Curve 3"/>
</g>
</g>
<g fill="#11111b" opacity="1" stroke="none" vectornator:layerName="Text 1">
<path d="M527.261 138.831L684.145 138.831L684.145 165.198L555.679 165.198L555.679 230.53L674.477 230.53L674.477 255.432L555.679 255.432L555.679 328.381L686.343 328.381L686.343 354.016L527.261 354.016L527.261 138.831Z"/>
<path d="M835.024 265.832L802.358 170.764L767.642 265.832L835.024 265.832ZM787.124 138.831L820.083 138.831L898.159 354.016L866.226 354.016L844.399 289.563L759.292 289.563L736.001 354.016L706.118 354.016L787.124 138.831Z"/>
<path d="M943.716 284.582C944.399 296.789 947.28 306.702 952.358 314.319C962.026 328.577 979.067 335.706 1003.48 335.706C1014.42 335.706 1024.38 334.143 1033.36 331.018C1050.75 324.963 1059.44 314.123 1059.44 298.498C1059.44 286.78 1055.78 278.43 1048.45 273.45C1041.03 268.567 1029.41 264.319 1013.59 260.706L984.438 254.114C965.395 249.817 951.919 245.081 944.009 239.905C930.337 230.92 923.501 217.493 923.501 199.622C923.501 180.286 930.19 164.416 943.569 152.014C956.948 139.612 975.894 133.411 1000.41 133.411C1022.96 133.411 1042.13 138.855 1057.9 149.744C1073.67 160.632 1081.56 178.039 1081.56 201.965L1054.16 201.965C1052.7 190.442 1049.58 181.604 1044.79 175.452C1035.9 164.221 1020.82 158.606 999.526 158.606C982.339 158.606 969.985 162.219 962.466 169.446C954.946 176.672 951.186 185.071 951.186 194.641C951.186 205.188 955.581 212.903 964.37 217.786C970.132 220.911 983.169 224.817 1003.48 229.504L1033.66 236.389C1048.21 239.709 1059.44 244.25 1067.35 250.012C1081.02 260.071 1087.86 274.67 1087.86 293.811C1087.86 317.639 1079.19 334.68 1061.86 344.934C1044.52 355.188 1024.38 360.315 1001.43 360.315C974.673 360.315 953.726 353.479 938.589 339.807C923.452 326.233 916.03 307.825 916.323 284.582L943.716 284.582Z"/>
<path d="M1131.36 138.831L1160.81 138.831L1160.81 354.016L1131.36 354.016L1131.36 138.831Z"/>
<path d="M1210.9 138.831L1360.17 138.831L1360.17 165.198L1240.05 165.198L1240.05 230.53L1345.67 230.53L1345.67 256.164L1240.05 256.164L1240.05 354.016L1210.9 354.016L1210.9 138.831Z"/>
<path d="M1394.16 138.831L1551.04 138.831L1551.04 165.198L1422.57 165.198L1422.57 230.53L1541.37 230.53L1541.37 255.432L1422.57 255.432L1422.57 328.381L1553.24 328.381L1553.24 354.016L1394.16 354.016L1394.16 138.831Z"/>
<path d="M1590.74 138.831L1632.49 138.831L1694.3 320.764L1755.68 138.831L1796.99 138.831L1796.99 354.016L1769.3 354.016L1769.3 227.014C1769.3 222.62 1769.4 215.344 1769.59 205.188C1769.79 195.032 1769.89 184.143 1769.89 172.522L1708.51 354.016L1679.65 354.016L1617.84 172.522L1617.84 179.114C1617.84 184.387 1617.96 192.419 1618.2 203.21C1618.45 214.001 1618.57 221.936 1618.57 227.014L1618.57 354.016L1590.74 354.016L1590.74 138.831Z"/>
</g>
</g>
</g>
</svg>
