<?xml version="1.0" encoding="UTF-8" standalone="no"?>
<!DOCTYPE svg PUBLIC "-//W3C//DTD SVG 1.1//EN" "http://www.w3.org/Graphics/SVG/1.1/DTD/svg11.dtd">
<!-- Created with Vectornator (http://vectornator.io/) -->
<svg height="100%" stroke-miterlimit="10" style="fill-rule:nonzero;clip-rule:evenodd;stroke-linecap:round;stroke-linejoin:round;" version="1.1" viewBox="0 0 500 102" width="100%" xml:space="preserve" xmlns="http://www.w3.org/2000/svg" xmlns:vectornator="http://vectornator.io" xmlns:xlink="http://www.w3.org/1999/xlink">
<defs/>
<g id="Layer-1" vectornator:layerName="Layer 1">
<path d="M449.531 62.7912C447.869 63.6238 445.768 63.7392 443.801 62.9519C441.835 62.1645 440.028 60.4701 438.987 58.2157C437.945 55.9614 437.692 53.1659 438.473 50.6008C439.254 48.0357 441.074 45.7356 443.575 44.4831C446.075 43.2306 449.236 43.0569 452.194 44.2414C455.153 45.4259 457.871 47.9751 459.438 51.3665C461.005 54.758 461.385 58.9636 460.21 62.8226C459.035 66.6816 456.297 70.142 452.535 72.0262C448.774 73.9105 444.019 74.1718 439.568 72.3898C435.117 70.6078 431.028 66.7728 428.671 61.6706C426.313 56.5684 425.742 50.2414 427.509 44.4359C429.276 38.6304 433.395 33.4245 439.055 30.5898C444.714 27.7551 451.867 27.3619 458.563 30.0428C465.26 32.7237 471.411 38.4931 474.957 46.169C478.504 53.8448 479.364 63.3633 476.705 72.0972C474.047 80.8312 467.849 88.6629 459.335 92.9276C450.822 97.1922 440.06 97.7837 429.986 93.7505C419.912 89.7172 410.658 81.0376 405.323 69.4899C399.987 57.9423 398.694 43.6224 402.693 30.4829" fill="none" opacity="1" stroke="#a6e3a1" stroke-linecap="butt" stroke-linejoin="miter" stroke-width="0.750093" vectornator:layerName="Spiral 1"/>
<path d="M139.63 84.8841C139.427 83.9719 139.684 82.9444 140.414 82.1025C141.145 81.2607 142.347 80.6175 143.739 80.4178C145.132 80.218 146.7 80.471 147.985 81.1907C149.271 81.9105 150.252 83.0955 150.557 84.4678C150.862 85.8401 150.476 87.3859 149.377 88.6524C148.279 89.919 146.47 90.8866 144.375 91.1871C142.28 91.4875 139.92 91.107 137.987 90.0242C136.054 88.9414 134.577 87.1586 134.118 85.0941C133.659 83.0296 134.24 80.704 135.893 78.7987C137.546 76.8933 140.267 75.4376 143.419 74.9855C146.57 74.5335 150.12 75.1059 153.029 76.7349C155.937 78.364 158.16 81.046 158.85 84.1519C159.54 87.2578 158.666 90.7564 156.179 93.6229C153.692 96.4894 149.598 98.6794 144.857 99.3594C140.116 100.039 134.775 99.1783 130.4 96.7276C126.024 94.2768 122.681 90.2419 121.643 85.5693C120.605 80.8968 121.919 75.6334 125.66 71.321C129.401 67.0087 135.561 63.714 142.693 62.6909C149.826 61.6678 157.861 62.9633 164.444 66.6503" fill="none" opacity="1" stroke="#62ddc9" stroke-linecap="butt" stroke-linejoin="miter" stroke-width="0.750093" vectornator:layerName="Spiral 2"/>
<path d="M206.322 70.1843C205.966 68.3599 206.417 66.3049 207.703 64.6211C208.988 62.9374 211.105 61.651 213.556 61.2516C216.007 60.8521 218.768 61.358 221.03 62.7975C223.292 64.237 225.02 66.6071 225.557 69.3517C226.094 72.0963 225.414 75.1879 223.48 77.7209C221.546 80.254 218.362 82.1892 214.675 82.7902C210.987 83.3911 206.834 82.6301 203.431 80.4645C200.027 78.2988 197.427 74.7332 196.62 70.6042C195.813 66.4752 196.835 61.8241 199.745 58.0134C202.654 54.2026 207.444 51.2912 212.992 50.3871C218.539 49.4831 224.788 50.6279 229.908 53.886C235.027 57.144 238.939 62.5081 240.153 68.7199C241.368 74.9316 239.83 81.9289 235.453 87.6618C231.076 93.3948 223.869 97.7748 215.523 99.1349C207.178 100.495 197.777 98.7727 190.075 93.8712C182.373 88.9697 176.488 80.8998 174.661 71.5547C172.834 62.2096 175.148 51.6828 181.733 43.0581C188.318 34.4334 199.16 27.844 211.715 25.7978C224.27 23.7517 238.413 26.3427 250 33.7166" fill="none" opacity="1" stroke="#62ddc9" stroke-linecap="butt" stroke-linejoin="miter" stroke-width="0.750093" vectornator:layerName="Spiral 3"/>
<path d="M294.279 70.1843C294.635 68.3599 294.184 66.3049 292.898 64.6211C291.613 62.9374 289.496 61.651 287.045 61.2516C284.594 60.8521 281.833 61.358 279.571 62.7975C277.309 64.237 275.581 66.6071 275.044 69.3517C274.507 72.0963 275.187 75.1879 277.121 77.7209C279.055 80.254 282.239 82.1892 285.926 82.7902C289.614 83.3911 293.767 82.6301 297.17 80.4645C300.574 78.2988 303.174 74.7332 303.981 70.6042C304.788 66.4752 303.766 61.8241 300.856 58.0134C297.947 54.2026 293.157 51.2912 287.609 50.3871C282.062 49.4831 275.813 50.6279 270.693 53.886C265.574 57.144 261.662 62.5081 260.448 68.7199C259.233 74.9316 260.771 81.9289 265.148 87.6618C269.525 93.3948 276.732 97.7748 285.078 99.1349C293.423 100.495 302.824 98.7727 310.526 93.8712C318.228 88.9697 324.113 80.8998 325.94 71.5547C327.767 62.2096 325.453 51.6828 318.868 43.0581C312.283 34.4334 301.441 27.844 288.886 25.7978C276.331 23.7517 262.188 26.3427 250.601 33.7166" fill="none" opacity="1" stroke="#f38ba8" stroke-linecap="butt" stroke-linejoin="miter" stroke-width="0.750093" vectornator:layerName="Spiral 6"/>
<path d="M358.808 67.2231C358.451 65.3988 358.903 63.3437 360.189 61.66C361.474 59.9763 363.591 58.6899 366.042 58.2905C368.493 57.891 371.254 58.3969 373.516 59.8364C375.778 61.2759 377.506 63.646 378.043 66.3906C378.579 69.1352 377.9 72.2268 375.966 74.7598C374.032 77.2928 370.848 79.2281 367.16 79.829C363.473 80.43 359.319 79.669 355.916 77.5033C352.513 75.3377 349.913 71.7721 349.106 67.6431C348.298 63.5141 349.321 58.863 352.23 55.0522C355.14 51.2415 359.93 48.3301 365.478 47.426C371.025 46.5219 377.274 47.6668 382.393 50.9248C387.513 54.1829 391.425 59.547 392.639 65.7588C393.854 71.9705 392.316 78.9678 387.939 84.7007C383.561 90.4336 376.355 94.8137 368.009 96.1738C359.664 97.5338 350.263 95.8115 342.561 90.91C334.859 86.0086 328.974 77.9387 327.147 68.5936C325.319 59.2485 327.633 48.7217 334.218 40.097C340.804 31.4722 351.645 24.8828 364.201 22.8367C376.756 20.7905 390.898 23.3816 402.486 30.7555" fill="none" opacity="1" stroke="#62ddc9" stroke-linecap="butt" stroke-linejoin="miter" stroke-width="0.750093" vectornator:layerName="Spiral 4"/>
<path d="M81.7184 62.4854C82.7823 61.6246 84.2871 61.2523 85.8485 61.588C87.4099 61.9237 89.0099 62.9741 90.1504 64.5557C91.2909 66.1374 91.9511 68.2391 91.8223 70.3046C91.6935 72.37 90.7652 74.3735 89.1645 75.6685C87.5639 76.9635 85.3001 77.5235 82.9511 77.0185C80.6021 76.5135 78.1951 74.9332 76.4793 72.5538C74.7635 70.1744 73.7702 67.0124 73.964 63.9052C74.1577 60.7979 75.5543 57.7838 77.9624 55.8355C80.3704 53.8873 83.7761 53.0448 87.31 53.8046C90.8438 54.5644 94.465 56.9417 97.0463 60.5214C99.6276 64.101 101.122 68.8579 100.83 73.5325C100.539 78.2072 98.4378 82.7417 94.8151 85.6726C91.1925 88.6036 86.0688 89.8711 80.7524 88.728C75.436 87.585 69.9882 84.0084 66.1049 78.6232C62.2215 73.2379 59.9734 66.0815 60.412 59.0489C60.8506 52.0163 64.0115 45.1945 69.4615 40.7851C74.9115 36.3758 82.6197 34.4689 90.6178 36.1885C98.6158 37.9081 106.812 43.2888 112.654 51.3905C118.496 59.4922 121.878 70.2584 121.218 80.8384" fill="none" opacity="1" stroke="#74c7ec" stroke-linecap="butt" stroke-linejoin="miter" stroke-width="0.750093" vectornator:layerName="Spiral 5"/>
</g>
</svg>
