<?xml version="1.0" encoding="UTF-8" standalone="no"?>
<!DOCTYPE svg PUBLIC "-//W3C//DTD SVG 1.1//EN" "http://www.w3.org/Graphics/SVG/1.1/DTD/svg11.dtd">
<!-- Created with Vectornator (http://vectornator.io/) -->
<svg height="100%" stroke-miterlimit="10" style="fill-rule:nonzero;clip-rule:evenodd;stroke-linecap:round;stroke-linejoin:round;" version="1.1" viewBox="0 0 500 102" width="100%" xml:space="preserve" xmlns="http://www.w3.org/2000/svg" xmlns:vectornator="http://vectornator.io" xmlns:xlink="http://www.w3.org/1999/xlink">
<defs/>
<clipPath id="ArtboardFrame">
<rect height="102" width="500" x="0" y="0"/>
</clipPath>
<g clip-path="url(#ArtboardFrame)" id="Layer-1" vectornator:layerName="Layer 1">
<g opacity="1" vectornator:layerName="layered-waves-haikei-2.svg">
<path d="M-9.46739 59L1.03261 60C11.5326 61 32.5326 63 53.3326 60.8C74.2326 58.7 94.8326 52.3 115.733 51.5C136.533 50.7 157.533 55.3 178.333 57.8C199.233 60.3 219.833 60.7 240.733 57.2C261.533 53.7 282.533 46.3 303.333 44.5C324.233 42.7 344.833 46.3 365.733 50.5C386.533 54.7 407.533 59.3 428.333 62C449.233 64.7 469.833 65.3 480.233 65.7L490.533 66L490.533 102L480.233 102C469.833 102 449.233 102 428.333 102C407.533 102 386.533 102 365.733 102C344.833 102 324.233 102 303.333 102C282.533 102 261.533 102 240.733 102C219.833 102 199.233 102 178.333 102C157.533 102 136.533 102 115.733 102C94.8326 102 74.2326 102 53.3326 102C32.5326 102 11.5326 102 1.03261 102L-9.46739 102L-9.46739 59Z" fill="#a6e3a1" fill-rule="nonzero" opacity="1" stroke="none" vectornator:layerName="path"/>
<path d="M-9.46739 69L1.03261 67.7C11.5326 66.3 32.5326 63.7 53.3326 63.7C74.2326 63.7 94.8326 66.3 115.733 66.2C136.533 66 157.533 63 178.333 60.2C199.233 57.3 219.833 54.7 240.733 55C261.533 55.3 282.533 58.7 303.333 58C324.233 57.3 344.833 52.7 365.733 50.7C386.533 48.7 407.533 49.3 428.333 52C449.233 54.7 469.833 59.3 480.233 61.7L490.533 64L490.533 102L480.233 102C469.833 102 449.233 102 428.333 102C407.533 102 386.533 102 365.733 102C344.833 102 324.233 102 303.333 102C282.533 102 261.533 102 240.733 102C219.833 102 199.233 102 178.333 102C157.533 102 136.533 102 115.733 102C94.8326 102 74.2326 102 53.3326 102C32.5326 102 11.5326 102 1.03261 102L-9.46739 102L-9.46739 69Z" fill="#79e3b9" fill-rule="nonzero" opacity="1" stroke="none" vectornator:layerName="path"/>
<path d="M-9.46739 58L1.03261 57.7C11.5326 57.3 32.5326 56.7 53.3326 56.3C74.2326 56 94.8326 56 115.733 59.3C136.533 62.7 157.533 69.3 178.333 71.7C199.233 74 219.833 72 240.733 71C261.533 70 282.533 70 303.333 67.8C324.233 65.7 344.833 61.3 365.733 59.2C386.533 57 407.533 57 428.333 57.3C449.233 57.7 469.833 58.3 480.233 58.7L490.533 59L490.533 102L480.233 102C469.833 102 449.233 102 428.333 102C407.533 102 386.533 102 365.733 102C344.833 102 324.233 102 303.333 102C282.533 102 261.533 102 240.733 102C219.833 102 199.233 102 178.333 102C157.533 102 136.533 102 115.733 102C94.8326 102 74.2326 102 53.3326 102C32.5326 102 11.5326 102 1.03261 102L-9.46739 102L-9.46739 58Z" fill="#46e1d6" fill-rule="nonzero" opacity="1" stroke="none" vectornator:layerName="path"/>
<path d="M-9.46739 74L1.03261 74C11.5326 74 32.5326 74 53.3326 73.8C74.2326 73.7 94.8326 73.3 115.733 73.3C136.533 73.3 157.533 73.7 178.333 73C199.233 72.3 219.833 70.7 240.733 70.5C261.533 70.3 282.533 71.7 303.333 70.2C324.233 68.7 344.833 64.3 365.733 62.8C386.533 61.3 407.533 62.7 428.333 63.7C449.233 64.7 469.833 65.3 480.233 65.7L490.533 66L490.533 102L480.233 102C469.833 102 449.233 102 428.333 102C407.533 102 386.533 102 365.733 102C344.833 102 324.233 102 303.333 102C282.533 102 261.533 102 240.733 102C219.833 102 199.233 102 178.333 102C157.533 102 136.533 102 115.733 102C94.8326 102 74.2326 102 53.3326 102C32.5326 102 11.5326 102 1.03261 102L-9.46739 102L-9.46739 74Z" fill="#00dbf2" fill-rule="nonzero" opacity="1" stroke="none" vectornator:layerName="path"/>
<path d="M-9.46739 76L1.03261 77.2C11.5326 78.3 32.5326 80.7 53.3326 80.8C74.2326 81 94.8326 79 115.733 76.5C136.533 74 157.533 71 178.333 70.2C199.233 69.3 219.833 70.7 240.733 71.5C261.533 72.3 282.533 72.7 303.333 74.3C324.233 76 344.833 79 365.733 78.7C386.533 78.3 407.533 74.7 428.333 73.2C449.233 71.7 469.833 72.3 480.233 72.7L490.533 73L490.533 102L480.233 102C469.833 102 449.233 102 428.333 102C407.533 102 386.533 102 365.733 102C344.833 102 324.233 102 303.333 102C282.533 102 261.533 102 240.733 102C219.833 102 199.233 102 178.333 102C157.533 102 136.533 102 115.733 102C94.8326 102 74.2326 102 53.3326 102C32.5326 102 11.5326 102 1.03261 102L-9.46739 102L-9.46739 76Z" fill="#29d2ff" fill-rule="nonzero" opacity="1" stroke="none" vectornator:layerName="path"/>
<path d="M-9.46739 77L1.03261 76.7C11.5326 76.3 32.5326 75.7 53.3326 76.8C74.2326 78 94.8326 81 115.733 81C136.533 81 157.533 78 178.333 76.8C199.233 75.7 219.833 76.3 240.733 77.8C261.533 79.3 282.533 81.7 303.333 82.7C324.233 83.7 344.833 83.3 365.733 82C386.533 80.7 407.533 78.3 428.333 78.8C449.233 79.3 469.833 82.7 480.233 84.3L490.533 86L490.533 102L480.233 102C469.833 102 449.233 102 428.333 102C407.533 102 386.533 102 365.733 102C344.833 102 324.233 102 303.333 102C282.533 102 261.533 102 240.733 102C219.833 102 199.233 102 178.333 102C157.533 102 136.533 102 115.733 102C94.8326 102 74.2326 102 53.3326 102C32.5326 102 11.5326 102 1.03261 102L-9.46739 102L-9.46739 77Z" fill="#69c6ff" fill-rule="nonzero" opacity="1" stroke="none" vectornator:layerName="path"/>
<path d="M-9.46739 81L1.03261 82.3C11.5326 83.7 32.5326 86.3 53.3326 87.8C74.2326 89.3 94.8326 89.7 115.733 89.7C136.533 89.7 157.533 89.3 178.333 89.5C199.233 89.7 219.833 90.3 240.733 90.7C261.533 91 282.533 91 303.333 89.8C324.233 88.7 344.833 86.3 365.733 86.5C386.533 86.7 407.533 89.3 428.333 89.8C449.233 90.3 469.833 88.7 480.233 87.8L490.533 87L490.533 102L480.233 102C469.833 102 449.233 102 428.333 102C407.533 102 386.533 102 365.733 102C344.833 102 324.233 102 303.333 102C282.533 102 261.533 102 240.733 102C219.833 102 199.233 102 178.333 102C157.533 102 136.533 102 115.733 102C94.8326 102 74.2326 102 53.3326 102C32.5326 102 11.5326 102 1.03261 102L-9.46739 102L-9.46739 81Z" fill="#9fb7ff" fill-rule="nonzero" opacity="1" stroke="none" vectornator:layerName="path"/>
<path d="M-9.46739 94L1.03261 94.5C11.5326 95 32.5326 96 53.3326 96C74.2326 96 94.8326 95 115.733 94.2C136.533 93.3 157.533 92.7 178.333 92.5C199.233 92.3 219.833 92.7 240.733 92.7C261.533 92.7 282.533 92.3 303.333 91.5C324.233 90.7 344.833 89.3 365.733 89.2C386.533 89 407.533 90 428.333 91C449.233 92 469.833 93 480.233 93.5L490.533 94L490.533 102L480.233 102C469.833 102 449.233 102 428.333 102C407.533 102 386.533 102 365.733 102C344.833 102 324.233 102 303.333 102C282.533 102 261.533 102 240.733 102C219.833 102 199.233 102 178.333 102C157.533 102 136.533 102 115.733 102C94.8326 102 74.2326 102 53.3326 102C32.5326 102 11.5326 102 1.03261 102L-9.46739 102L-9.46739 94Z" fill="#cba6f7" fill-rule="nonzero" opacity="1" stroke="none" vectornator:layerName="path"/>
</g>
</g>
</svg>
