<?xml version="1.0" encoding="UTF-8" standalone="no"?>
<!DOCTYPE svg PUBLIC "-//W3C//DTD SVG 1.1//EN" "http://www.w3.org/Graphics/SVG/1.1/DTD/svg11.dtd">
<!-- Created with Vectornator (http://vectornator.io/) -->
<svg height="100%" stroke-miterlimit="10" style="fill-rule:nonzero;clip-rule:evenodd;stroke-linecap:round;stroke-linejoin:round;" version="1.1" viewBox="0 0 512 512" width="100%" xml:space="preserve" xmlns="http://www.w3.org/2000/svg" xmlns:vectornator="http://vectornator.io" xmlns:xlink="http://www.w3.org/1999/xlink">
<defs/>
<clipPath id="ArtboardFrame">
<rect height="512" width="512" x="0" y="0"/>
</clipPath>
<g clip-path="url(#ArtboardFrame)" id="Untitled" vectornator:layerName="Untitled">
<path d="M151.787 0.0541795L363.787 0.0541795C446.63 0.0541795 513.787 67.2115 513.787 150.054L513.787 362.054C513.787 444.897 446.63 512.054 363.787 512.054L151.787 512.054C68.9441 512.054 1.78681 444.897 1.78681 362.054L1.78681 150.054C1.78681 67.2115 68.9441 0.0541795 151.787 0.0541795Z" fill="#ffffff" fill-rule="nonzero" opacity="1" stroke="none" vectornator:layerName="rect"/>
<g opacity="1" vectornator:layerName="Group 1">
<path d="M280.786 125.291C286.266 126.426 291.848 126.993 297.445 126.983C316.944 127.065 335.675 119.385 349.505 105.638C367.331 87.463 374.815 61.538 369.417 36.6589C368.464 31.2809 364.253 27.0706 358.875 26.1168C334.04 20.6525 308.122 28.0368 289.896 45.7693C272.164 63.9953 264.779 89.9137 270.244 114.749C271.197 120.127 275.408 124.337 280.786 125.291ZM308.638 64.2506C318.316 54.6793 331.626 49.7056 345.21 50.5849C346.089 64.1681 341.115 77.4786 331.544 87.1569C321.799 96.5638 308.469 101.308 294.972 100.172C294.244 86.8538 299.102 73.8354 308.377 64.2506L308.638 64.2506Z" fill="#000000" fill-rule="nonzero" opacity="1" stroke="none" vectornator:layerName="path"/>
<path d="M426.032 326.632C402.283 313.823 386.828 289.661 385.16 262.729C383.492 235.797 395.846 209.912 417.833 194.27C420.757 192.183 422.688 188.98 423.169 185.42C423.688 181.845 422.698 178.215 420.436 175.398C405.01 156.661 385.146 142.076 362.65 132.969C345.274 126.004 325.883 126.004 308.507 132.969L285.211 142.34C274.051 146.768 261.621 146.768 250.461 142.34L227.034 132.969C209.659 126.004 190.267 126.004 172.892 132.969C102.605 161.435 66.3731 239.473 89.9866 311.534L94.5418 322.467C106.764 352.815 123.194 381.293 143.348 407.064C165.444 440.103 208.672 451.537 244.214 433.745C259.02 426.232 276.522 426.232 291.328 433.745C326.582 451.356 369.425 440.242 391.673 407.715C407.132 387.809 420.479 366.349 431.499 343.681C434.496 337.449 432.095 329.96 426.032 326.632ZM370.589 392.618C355.81 414.771 326.828 422.421 303.041 410.448C280.8 399.508 254.741 399.508 232.5 410.448C208.374 422.398 179.122 414.4 164.432 391.837C145.601 367.688 130.186 341.061 118.619 312.706L114.455 302.554C95.5821 243.711 125.339 180.28 182.653 157.177C193.743 152.621 206.183 152.621 217.273 157.177L240.7 166.548C258.088 173.447 277.454 173.447 294.842 166.548L318.269 157.177C329.405 152.628 341.882 152.628 353.019 157.177C367.551 162.917 380.816 171.451 392.063 182.296C369.404 203.719 357.54 234.171 359.733 265.277C361.926 296.383 377.945 324.868 403.386 342.9C393.845 360.35 382.875 376.979 370.589 392.618Z" fill="#000000" fill-rule="nonzero" opacity="1" stroke="none" vectornator:layerName="path"/>
</g>
</g>
</svg>
