<?xml version="1.0" encoding="UTF-8" standalone="no"?>
<!DOCTYPE svg PUBLIC "-//W3C//DTD SVG 1.1//EN" "http://www.w3.org/Graphics/SVG/1.1/DTD/svg11.dtd">
<svg width="100%" height="100%" viewBox="0 0 1743 1700" version="1.1" xmlns="http://www.w3.org/2000/svg" xmlns:xlink="http://www.w3.org/1999/xlink" xml:space="preserve" xmlns:serif="http://www.serif.com/" style="fill-rule:evenodd;clip-rule:evenodd;stroke-linecap:round;stroke-linejoin:round;stroke-miterlimit:1.5;">
    <g transform="matrix(1,0,0,1,-324.073,-327.997)">
        <g>
            <rect x="478.809" y="473.361" width="1419.62" height="1417.68" style="fill:rgb(235,235,235);stroke:black;stroke-width:4.17px;"/>
            <g transform="matrix(1,0,0,1,-136.806,-63.8979)">
                <g transform="matrix(66.6667,0,0,66.6667,1675.95,1182.19)">
                </g>
                <text x="1601.79px" y="1182.19px" style="font-family:'ArialMT', 'Arial', sans-serif;font-size:66.667px;">51</text>
            </g>
            <g transform="matrix(1,0,0,1,-798.036,-63.9304)">
                <g transform="matrix(66.6667,0,0,66.6667,1675.95,1182.19)">
                </g>
                <text x="1601.79px" y="1182.19px" style="font-family:'ArialMT', 'Arial', sans-serif;font-size:66.667px;">53</text>
            </g>
            <g transform="matrix(1,0,0,1,-458.191,-63.8979)">
                <g transform="matrix(66.6667,0,0,66.6667,1675.95,1182.19)">
                </g>
                <text x="1601.79px" y="1182.19px" style="font-family:'ArialMT', 'Arial', sans-serif;font-size:66.667px;">54</text>
            </g>
            <g transform="matrix(1,0,0,1,-447.539,-423.859)">
                <g transform="matrix(66.6667,0,0,66.6667,1675.95,1182.19)">
                </g>
                <text x="1601.79px" y="1182.19px" style="font-family:'ArialMT', 'Arial', sans-serif;font-size:66.667px;">52</text>
            </g>
            <g transform="matrix(1,0,0,1,-35.2259,24.3872)">
                <g transform="matrix(66.6667,0,0,66.6667,908.972,733.94)">
                </g>
                <text x="834.818px" y="733.94px" style="font-family:'ArialMT', 'Arial', sans-serif;font-size:66.667px;">49</text>
            </g>
            <g transform="matrix(0.464189,0,0,0.464189,280.268,1015.7)">
                <circle cx="421.503" cy="1884.08" r="50.889" style="stroke:black;stroke-width:8.98px;"/>
            </g>
            <g transform="matrix(0.464189,0,0,0.464189,646.268,1015.7)">
                <circle cx="421.503" cy="1884.08" r="50.889" style="fill:rgb(26,50,230);stroke:black;stroke-width:8.98px;"/>
            </g>
            <g transform="matrix(0.464189,0,0,0.464189,1316.27,1015.7)">
                <circle cx="421.503" cy="1884.08" r="50.889" style="fill:rgb(26,50,230);stroke:black;stroke-width:8.98px;"/>
            </g>
            <g transform="matrix(0.464189,0,0,0.464189,985.268,1015.7)">
                <circle cx="421.503" cy="1884.08" r="50.889" style="fill:rgb(26,50,230);stroke:black;stroke-width:8.98px;"/>
            </g>
            <g transform="matrix(0.464189,0,0,0.464189,646.268,-395.298)">
                <circle cx="421.503" cy="1884.08" r="50.889" style="fill:rgb(26,50,230);stroke:black;stroke-width:8.98px;"/>
            </g>
            <g transform="matrix(0.464189,0,0,0.464189,1316.27,-395.298)">
                <circle cx="421.503" cy="1884.08" r="50.889" style="fill:rgb(26,50,230);stroke:black;stroke-width:8.98px;"/>
            </g>
            <g transform="matrix(0.464189,0,0,0.464189,985.268,-395.298)">
                <circle cx="421.503" cy="1884.08" r="50.889" style="fill:rgb(26,50,230);stroke:black;stroke-width:8.98px;"/>
            </g>
            <g transform="matrix(2.84234e-17,-0.464189,0.464189,2.84234e-17,-397.645,1709.93)">
                <circle cx="421.503" cy="1884.08" r="50.889" style="fill:rgb(26,50,230);stroke:black;stroke-width:8.98px;"/>
            </g>
            <g transform="matrix(2.84234e-17,-0.464189,0.464189,2.84234e-17,-397.645,1039.93)">
                <circle cx="421.503" cy="1884.08" r="50.889" style="fill:rgb(26,50,230);stroke:black;stroke-width:8.98px;"/>
            </g>
            <g transform="matrix(2.84234e-17,-0.464189,0.464189,2.84234e-17,-397.645,1370.93)">
                <circle cx="421.503" cy="1884.08" r="50.889" style="fill:rgb(26,50,230);stroke:black;stroke-width:8.98px;"/>
            </g>
            <g transform="matrix(2.84234e-17,-0.464189,0.464189,2.84234e-17,1022.35,1709.93)">
                <circle cx="421.503" cy="1884.08" r="50.889" style="fill:rgb(26,50,230);stroke:black;stroke-width:8.98px;"/>
            </g>
            <g transform="matrix(2.84234e-17,-0.464189,0.464189,2.84234e-17,1022.35,1039.93)">
                <circle cx="421.503" cy="1884.08" r="50.889" style="fill:rgb(26,50,230);stroke:black;stroke-width:8.98px;"/>
            </g>
            <g transform="matrix(2.84234e-17,-0.464189,0.464189,2.84234e-17,1022.35,1370.93)">
                <circle cx="421.503" cy="1884.08" r="50.889" style="fill:rgb(26,50,230);stroke:black;stroke-width:8.98px;"/>
            </g>
            <g transform="matrix(2.84234e-17,-0.464189,0.464189,2.84234e-17,-37.6452,1709.93)">
                <circle cx="421.503" cy="1884.08" r="50.889" style="fill:rgb(242,13,13);stroke:black;stroke-width:8.98px;"/>
            </g>
            <g transform="matrix(2.84234e-17,-0.464189,0.464189,2.84234e-17,-37.6452,1039.93)">
                <circle cx="421.503" cy="1884.08" r="50.889" style="fill:rgb(242,13,13);stroke:black;stroke-width:8.98px;"/>
            </g>
            <g transform="matrix(2.84234e-17,-0.464189,0.464189,2.84234e-17,-37.6452,1370.93)">
                <circle cx="421.503" cy="1884.08" r="50.889" style="fill:rgb(242,13,13);stroke:black;stroke-width:8.98px;"/>
            </g>
            <g transform="matrix(2.84234e-17,-0.464189,0.464189,2.84234e-17,302.355,1709.93)">
                <circle cx="421.503" cy="1884.08" r="50.889" style="fill:rgb(242,13,13);stroke:black;stroke-width:8.98px;"/>
            </g>
            <g transform="matrix(2.84234e-17,-0.464189,0.464189,2.84234e-17,302.355,1039.93)">
                <circle cx="421.503" cy="1884.08" r="50.889" style="fill:rgb(242,13,13);stroke:black;stroke-width:8.98px;"/>
            </g>
            <g transform="matrix(2.84234e-17,-0.464189,0.464189,2.84234e-17,302.355,1370.93)">
                <circle cx="421.503" cy="1884.08" r="50.889" style="fill:rgb(242,13,13);stroke:black;stroke-width:8.98px;"/>
            </g>
            <g transform="matrix(2.84234e-17,-0.464189,0.464189,2.84234e-17,632.355,1709.93)">
                <circle cx="421.503" cy="1884.08" r="50.889" style="fill:rgb(242,13,13);stroke:black;stroke-width:8.98px;"/>
            </g>
            <g transform="matrix(2.84234e-17,-0.464189,0.464189,2.84234e-17,632.355,1039.93)">
                <circle cx="421.503" cy="1884.08" r="50.889" style="fill:rgb(242,13,13);stroke:black;stroke-width:8.98px;"/>
            </g>
            <g transform="matrix(2.84234e-17,-0.464189,0.464189,2.84234e-17,632.355,1370.93)">
                <circle cx="421.503" cy="1884.08" r="50.889" style="fill:rgb(242,13,13);stroke:black;stroke-width:8.98px;"/>
            </g>
            <g transform="matrix(0.464189,0,0,0.464189,1702.76,1015.7)">
                <circle cx="421.503" cy="1884.08" r="50.889" style="stroke:black;stroke-width:8.98px;"/>
            </g>
            <g transform="matrix(0.464189,0,0,0.464189,1702.76,-398.697)">
                <circle cx="421.503" cy="1884.08" r="50.889" style="stroke:black;stroke-width:8.98px;"/>
            </g>
            <g transform="matrix(0.464189,0,0,0.464189,280.268,-398.697)">
                <circle cx="421.503" cy="1884.08" r="50.889" style="stroke:black;stroke-width:8.98px;"/>
            </g>
            <g transform="matrix(1,0,0,1,-53.0458,-9.55732)">
                <g transform="matrix(66.6667,0,0,66.6667,502.163,2036.32)">
                </g>
                <text x="465.086px" y="2036.32px" style="font-family:'ArialMT', 'Arial', sans-serif;font-size:66.667px;">1</text>
            </g>
            <g transform="matrix(1,0,0,1,289.202,-9.55732)">
                <g transform="matrix(66.6667,0,0,66.6667,539.24,2036.32)">
                </g>
                <text x="465.086px" y="2036.32px" style="font-family:'ArialMT', 'Arial', sans-serif;font-size:66.667px;">10</text>
            </g>
            <g transform="matrix(1,0,0,1,662.391,-9.55732)">
                <g transform="matrix(66.6667,0,0,66.6667,534.292,2036.32)">
                </g>
                <text x="465.086px" y="2036.32px" style="font-family:'ArialMT', 'Arial', sans-serif;font-size:66.667px;">1<tspan x="497.215px " y="2036.32px ">1</tspan></text>
            </g>
            <g transform="matrix(1,0,0,1,1456.05,-10.4037)">
                <g transform="matrix(66.6667,0,0,66.6667,502.163,2036.32)">
                </g>
                <text x="465.086px" y="2036.32px" style="font-family:'ArialMT', 'Arial', sans-serif;font-size:66.667px;">5</text>
            </g>
            <g transform="matrix(1,0,0,1,1550.54,-1486.9)">
                <g transform="matrix(66.6667,0,0,66.6667,502.163,2036.32)">
                </g>
                <text x="465.086px" y="2036.32px" style="font-family:'ArialMT', 'Arial', sans-serif;font-size:66.667px;">9</text>
            </g>
            <g transform="matrix(1,0,0,1,-124.962,-1547.34)">
                <g transform="matrix(66.6667,0,0,66.6667,502.163,2036.32)">
                </g>
                <text x="465.086px" y="2036.32px" style="font-family:'ArialMT', 'Arial', sans-serif;font-size:66.667px;">8</text>
            </g>
            <g transform="matrix(66.6667,0,0,66.6667,1602.66,2026.77)">
            </g>
            <text x="1528.51px" y="2026.77px" style="font-family:'ArialMT', 'Arial', sans-serif;font-size:66.667px;">12</text>
            <g transform="matrix(1,0,0,1,322.306,-594.716)">
                <g transform="matrix(66.6667,0,0,66.6667,539.24,2036.32)">
                </g>
                <text x="465.086px" y="2036.32px" style="font-family:'ArialMT', 'Arial', sans-serif;font-size:66.667px;">46</text>
            </g>
            <g transform="matrix(1,0,0,1,695.495,-594.716)">
                <g transform="matrix(66.6667,0,0,66.6667,539.24,2036.32)">
                </g>
                <text x="465.086px" y="2036.32px" style="font-family:'ArialMT', 'Arial', sans-serif;font-size:66.667px;">50</text>
            </g>
            <g transform="matrix(1,0,0,1,-38.8964,-585.354)">
                <g transform="matrix(66.6667,0,0,66.6667,1602.66,2026.77)">
                </g>
                <text x="1528.51px" y="2026.77px" style="font-family:'ArialMT', 'Arial', sans-serif;font-size:66.667px;">47</text>
            </g>
            <g transform="matrix(1,0,0,1,13.7006,8.27589)">
                <g transform="matrix(66.6667,0,0,66.6667,2055.34,1526.02)">
                </g>
                <text x="1981.19px" y="1526.02px" style="font-family:'ArialMT', 'Arial', sans-serif;font-size:66.667px;">13</text>
            </g>
            <g transform="matrix(1,0,0,1,7.37777,8.27589)">
                <g transform="matrix(66.6667,0,0,66.6667,2061.76,1198.92)">
                </g>
                <text x="1987.61px" y="1198.92px" style="font-family:'ArialMT', 'Arial', sans-serif;font-size:66.667px;">14</text>
            </g>
            <g transform="matrix(1,0,0,1,-5.83334,8.27589)">
                <g transform="matrix(66.6667,0,0,66.6667,2074.7,849.962)">
                </g>
                <text x="2000.54px" y="849.962px" style="font-family:'ArialMT', 'Arial', sans-serif;font-size:66.667px;">15</text>
            </g>
            <g transform="matrix(66.6667,0,0,66.6667,906.129,375.914)">
            </g>
            <text x="831.975px" y="375.914px" style="font-family:'ArialMT', 'Arial', sans-serif;font-size:66.667px;">16</text>
            <g transform="matrix(1,0,0,1,0,14.1353)">
                <g transform="matrix(66.6667,0,0,66.6667,1243.3,362.593)">
                </g>
                <text x="1169.15px" y="362.593px" style="font-family:'ArialMT', 'Arial', sans-serif;font-size:66.667px;">17</text>
            </g>
            <g transform="matrix(1,0,0,1,0,4.8454)">
                <g transform="matrix(66.6667,0,0,66.6667,1603.49,371.069)">
                </g>
                <text x="1529.34px" y="371.069px" style="font-family:'ArialMT', 'Arial', sans-serif;font-size:66.667px;">18</text>
            </g>
            <g transform="matrix(1,0,0,1,-40.6621,52.3917)">
                <g transform="matrix(66.6667,0,0,66.6667,434.123,1534.59)">
                </g>
                <text x="359.969px" y="1534.59px" style="font-family:'ArialMT', 'Arial', sans-serif;font-size:66.667px;">18</text>
            </g>
            <g transform="matrix(1,0,0,1,-5.78322,52.3917)">
                <g transform="matrix(66.6667,0,0,66.6667,399.244,1171.01)">
                </g>
                <text x="325.09px" y="1171.01px" style="font-family:'ArialMT', 'Arial', sans-serif;font-size:66.667px;">19</text>
            </g>
            <g transform="matrix(1,0,0,1,-22.9188,52.3917)">
                <g transform="matrix(66.6667,0,0,66.6667,419.133,824.627)">
                </g>
                <text x="344.979px" y="824.627px" style="font-family:'ArialMT', 'Arial', sans-serif;font-size:66.667px;">20</text>
            </g>
            <g transform="matrix(1,0,0,1,-100.232,-43.1948)">
                <g transform="matrix(66.6667,0,0,66.6667,1647.29,801.522)">
                </g>
                <text x="1573.13px" y="801.522px" style="font-family:'ArialMT', 'Arial', sans-serif;font-size:66.667px;">48</text>
            </g>
        </g>
    </g>
</svg>
