<?xml version="1.0" encoding="UTF-8" standalone="no"?>
<svg xmlns="http://www.w3.org/2000/svg"
     xmlns:xlink="http://www.w3.org/1999/xlink"
     width="657pt" height="721pt" viewBox="0 0 657 721">
<title>small_tri3_mesh</title>
<desc>
Creator: GL2PS 1.4.3, (C) 1999-2020 C. Geuzaine
For: Gmsh
CreationDate: Thu Jun  5 08:37:10 2025
</desc>
<defs>
</defs>
<g>
<circle fill="#5a5a5a" cx="93.8571" cy="595.143" r="2"/>
<circle fill="#5a5a5a" cx="563.143" cy="595.143" r="2"/>
<circle fill="#5a5a5a" cx="563.143" cy="125.857" r="2"/>
<circle fill="#5a5a5a" cx="93.8571" cy="125.857" r="2"/>
<circle fill="#0000ff" cx="93.8571" cy="595.143" r="2"/>
<circle fill="#0000ff" cx="563.143" cy="595.143" r="2"/>
<circle fill="#0000ff" cx="563.143" cy="125.857" r="2"/>
<circle fill="#0000ff" cx="93.8571" cy="125.857" r="2"/>
<circle fill="#0000ff" cx="328.5" cy="595.143" r="2"/>
<circle fill="#0000ff" cx="563.143" cy="360.5" r="2"/>
<circle fill="#0000ff" cx="328.5" cy="125.857" r="2"/>
<circle fill="#0000ff" cx="93.8571" cy="360.5" r="2"/>
<text fill="#555555" x="508.067" y="259.799" font-size="15" text-anchor="start" dy="0" font-family="Helvetica">13</text>
<text fill="#555555" x="152.518" y="458.268" font-size="15" text-anchor="start" dy="0" font-family="Helvetica">14</text>
<text fill="#555555" x="230.732" y="536.482" font-size="15" text-anchor="start" dy="0" font-family="Helvetica">15</text>
<text fill="#555555" x="429.853" y="181.585" font-size="15" text-anchor="start" dy="0" font-family="Helvetica">16</text>
<text fill="#555555" x="440.933" y="551.147" font-size="15" text-anchor="start" dy="0" font-family="Helvetica">17</text>
<text fill="#555555" x="519.147" y="472.933" font-size="15" text-anchor="start" dy="0" font-family="Helvetica">18</text>
<text fill="#555555" x="218.022" y="171.808" font-size="15" text-anchor="start" dy="0" font-family="Helvetica">19</text>
<text fill="#555555" x="139.808" y="250.022" font-size="15" text-anchor="start" dy="0" font-family="Helvetica">20</text>
<text fill="#555555" x="464.071" y="372.232" font-size="15" text-anchor="start" dy="0" font-family="Helvetica">21</text>
<text fill="#555555" x="198.469" y="347.79" font-size="15" text-anchor="start" dy="0" font-family="Helvetica">22</text>
<text fill="#555555" x="299.821" y="325.304" font-size="15" text-anchor="start" dy="0" font-family="Helvetica">23</text>
<text fill="#555555" x="343.165" y="492.487" font-size="15" text-anchor="start" dy="0" font-family="Helvetica">24</text>
<text fill="#555555" x="366.304" y="391.786" font-size="15" text-anchor="start" dy="0" font-family="Helvetica">25</text>
<text fill="#555555" x="319.375" y="227.536" font-size="15" text-anchor="start" dy="0" font-family="Helvetica">26</text>
<circle fill="#0000ff" cx="231.71" cy="263.71" r="2"/>
<circle fill="#0000ff" cx="269.839" cy="419.161" r="2"/>
<circle fill="#0000ff" cx="397.915" cy="293.04" r="2"/>
<circle fill="#0000ff" cx="431.156" cy="463.156" r="2"/>
<polyline fill="none" stroke="#000000" stroke-width="1" stroke-linecap="butt" stroke-linejoin="miter" points="93.8571,595.143 328.5,595.143 563.143,595.143 563.143,360.5 563.143,125.857 328.5,125.857 93.8571,125.857 93.8571,360.5 93.8571,595.143"/>
<polyline fill="none" stroke="#aba1ff" stroke-width="1" stroke-linecap="butt" stroke-linejoin="miter" points="563.143,360.5 563.143,125.857 397.915,293.04 563.143,360.5"/>
<polyline fill="none" stroke="#aba1ff" stroke-width="1" stroke-linecap="butt" stroke-linejoin="miter" points="93.8571,360.5 93.8571,595.143 269.839,419.161 93.8571,360.5"/>
<polyline fill="none" stroke="#aba1ff" stroke-width="1" stroke-linecap="butt" stroke-linejoin="miter" points="93.8571,595.143 328.5,595.143 269.839,419.161 93.8571,595.143"/>
<polyline fill="none" stroke="#aba1ff" stroke-width="1" stroke-linecap="butt" stroke-linejoin="miter" points="563.143,125.857 328.5,125.857 397.915,293.04 563.143,125.857"/>
<polyline fill="none" stroke="#aba1ff" stroke-width="1" stroke-linecap="butt" stroke-linejoin="miter" points="328.5,595.143 563.143,595.143 431.156,463.156 328.5,595.143"/>
<polyline fill="none" stroke="#aba1ff" stroke-width="1" stroke-linecap="butt" stroke-linejoin="miter" points="563.143,595.143 563.143,360.5 431.156,463.156 563.143,595.143"/>
<polyline fill="none" stroke="#aba1ff" stroke-width="1" stroke-linecap="butt" stroke-linejoin="miter" points="328.5,125.857 93.8571,125.857 231.71,263.71 328.5,125.857"/>
<polyline fill="none" stroke="#aba1ff" stroke-width="1" stroke-linecap="butt" stroke-linejoin="miter" points="93.8571,125.857 93.8571,360.5 231.71,263.71 93.8571,125.857"/>
<polyline fill="none" stroke="#aba1ff" stroke-width="1" stroke-linecap="butt" stroke-linejoin="miter" points="563.143,360.5 397.915,293.04 431.156,463.156 563.143,360.5"/>
<polyline fill="none" stroke="#aba1ff" stroke-width="1" stroke-linecap="butt" stroke-linejoin="miter" points="231.71,263.71 93.8571,360.5 269.839,419.161 231.71,263.71 269.839,419.161 397.915,293.04 231.71,263.71"/>
<polyline fill="none" stroke="#aba1ff" stroke-width="1" stroke-linecap="butt" stroke-linejoin="miter" points="269.839,419.161 328.5,595.143 431.156,463.156 269.839,419.161"/>
<polyline fill="none" stroke="#aba1ff" stroke-width="1" stroke-linecap="butt" stroke-linejoin="miter" points="397.915,293.04 269.839,419.161 431.156,463.156 397.915,293.04"/>
<polyline fill="none" stroke="#aba1ff" stroke-width="1" stroke-linecap="butt" stroke-linejoin="miter" points="328.5,125.857 231.71,263.71 397.915,293.04 328.5,125.857"/>
<text fill="#0000ff" x="97.3571" y="591.643" font-size="15" text-anchor="start" dy="0" font-family="Helvetica">1</text>
<text fill="#0000ff" x="566.643" y="591.643" font-size="15" text-anchor="start" dy="0" font-family="Helvetica">2</text>
<text fill="#0000ff" x="566.643" y="122.357" font-size="15" text-anchor="start" dy="0" font-family="Helvetica">3</text>
<text fill="#0000ff" x="97.3571" y="122.357" font-size="15" text-anchor="start" dy="0" font-family="Helvetica">4</text>
<text fill="#0000ff" x="332" y="591.643" font-size="15" text-anchor="start" dy="0" font-family="Helvetica">5</text>
<text fill="#0000ff" x="566.643" y="357" font-size="15" text-anchor="start" dy="0" font-family="Helvetica">6</text>
<text fill="#0000ff" x="332" y="122.357" font-size="15" text-anchor="start" dy="0" font-family="Helvetica">7</text>
<text fill="#0000ff" x="97.3571" y="357" font-size="15" text-anchor="start" dy="0" font-family="Helvetica">8</text>
<text fill="#0000ff" x="235.21" y="260.21" font-size="15" text-anchor="start" dy="0" font-family="Helvetica">9</text>
<text fill="#0000ff" x="273.339" y="415.661" font-size="15" text-anchor="start" dy="0" font-family="Helvetica">10</text>
<text fill="#0000ff" x="401.415" y="289.54" font-size="15" text-anchor="start" dy="0" font-family="Helvetica">11</text>
<text fill="#0000ff" x="434.656" y="459.656" font-size="15" text-anchor="start" dy="0" font-family="Helvetica">12</text>
</g>
</svg>
