<?xml version="1.0" encoding="UTF-8" standalone="no"?>
<svg xmlns="http://www.w3.org/2000/svg"
     xmlns:xlink="http://www.w3.org/1999/xlink"
     width="1314pt" height="1442pt" viewBox="0 0 1314 1442">
<title>very_small_hexa8_mesh_two_region</title>
<desc>
Creator: GL2PS 1.4.3, (C) 1999-2020 C. Geuzaine
For: Gmsh
CreationDate: Sat May 31 01:10:53 2025
</desc>
<defs>
</defs>
<g>
<text fill="#0000ff" x="1053.18" y="600.995" font-size="15" text-anchor="start" dy="0" font-family="Helvetica">6</text>
<circle fill="#5a5a5a" cx="1047.88" cy="611.896" r="2"/>
<circle fill="#0000ff" cx="1047.88" cy="611.896" r="2"/>
<text fill="#555555" x="934.112" y="631.743" font-size="15" text-anchor="start" dy="0" font-family="Helvetica">20</text>
<polyline fill="none" stroke="#000000" stroke-width="1" stroke-linecap="butt" stroke-linejoin="miter" points="820.35,651.59 1047.88,611.896"/>
<polyline fill="none" stroke="#9b8fff" stroke-width="1" stroke-linecap="butt" stroke-linejoin="miter" points="1047.88,611.896 820.35,651.59"/>
<polyline fill="none" stroke="#403b70" stroke-width="1" stroke-linecap="butt" stroke-linejoin="miter" points="820.35,651.59 1047.88,611.896"/>
<polyline fill="none" stroke="#9b8fff" stroke-width="1" stroke-linecap="butt" stroke-linejoin="miter" points="1047.88,611.896 820.35,651.59"/>
<text fill="#0000ff" x="825.657" y="640.689" font-size="15" text-anchor="start" dy="0" font-family="Helvetica">16</text>
<circle fill="#0000ff" cx="820.35" cy="651.59" r="2"/>
<text fill="#555555" x="706.587" y="671.437" font-size="15" text-anchor="start" dy="0" font-family="Helvetica">19</text>
<polyline fill="none" stroke="#000000" stroke-width="1" stroke-linecap="butt" stroke-linejoin="miter" points="592.824,691.284 820.35,651.59"/>
<polyline fill="none" stroke="#9b8fff" stroke-width="1" stroke-linecap="butt" stroke-linejoin="miter" points="820.35,651.59 592.824,691.284"/>
<polyline fill="none" stroke="#403b70" stroke-width="1" stroke-linecap="butt" stroke-linejoin="miter" points="592.824,691.284 820.35,651.59"/>
<polyline fill="none" stroke="#9b8fff" stroke-width="1" stroke-linecap="butt" stroke-linejoin="miter" points="820.35,651.59 592.824,691.284"/>
<text fill="#0000ff" x="598.132" y="680.383" font-size="15" text-anchor="start" dy="0" font-family="Helvetica">5</text>
<circle fill="#5a5a5a" cx="592.824" cy="691.284" r="2"/>
<circle fill="#0000ff" cx="592.824" cy="691.284" r="2"/>
<text fill="#555555" x="479.062" y="711.131" font-size="15" text-anchor="start" dy="0" font-family="Helvetica">18</text>
<polyline fill="none" stroke="#000000" stroke-width="1" stroke-linecap="butt" stroke-linejoin="miter" points="365.299,730.978 592.824,691.284"/>
<polyline fill="none" stroke="#9b8fff" stroke-width="1" stroke-linecap="butt" stroke-linejoin="miter" points="592.824,691.284 365.299,730.978"/>
<polyline fill="none" stroke="#403b70" stroke-width="1" stroke-linecap="butt" stroke-linejoin="miter" points="365.299,730.978 592.824,691.284"/>
<polyline fill="none" stroke="#9b8fff" stroke-width="1" stroke-linecap="butt" stroke-linejoin="miter" points="592.824,691.284 365.299,730.978"/>
<text fill="#0000ff" x="370.607" y="720.077" font-size="15" text-anchor="start" dy="0" font-family="Helvetica">15</text>
<circle fill="#0000ff" cx="365.299" cy="730.978" r="2"/>
<text fill="#555555" x="1104.76" y="789.604" font-size="15" text-anchor="start" dy="0" font-family="Helvetica">31</text>
<text fill="#555555" x="251.536" y="750.825" font-size="15" text-anchor="start" dy="0" font-family="Helvetica">17</text>
<polyline fill="none" stroke="#000000" stroke-width="1" stroke-linecap="butt" stroke-linejoin="miter" points="1161.65,967.312 1047.88,611.896"/>
<polyline fill="none" stroke="#9b8fff" stroke-width="1" stroke-linecap="butt" stroke-linejoin="miter" points="1161.65,967.312 1047.88,611.896"/>
<polyline fill="none" stroke="#5c55a0" stroke-width="1" stroke-linecap="butt" stroke-linejoin="miter" points="1161.65,967.312 1047.88,611.896"/>
<polyline fill="none" stroke="#9b8fff" stroke-width="1" stroke-linecap="butt" stroke-linejoin="miter" points="1161.65,967.312 1047.88,611.896"/>
<polyline fill="none" stroke="#000000" stroke-width="1" stroke-linecap="butt" stroke-linejoin="miter" points="137.774,770.672 365.299,730.978"/>
<polyline fill="none" stroke="#9b8fff" stroke-width="1" stroke-linecap="butt" stroke-linejoin="miter" points="365.299,730.978 137.774,770.672"/>
<polyline fill="none" stroke="#403b70" stroke-width="1" stroke-linecap="butt" stroke-linejoin="miter" points="137.774,770.672 365.299,730.978"/>
<polyline fill="none" stroke="#9b8fff" stroke-width="1" stroke-linecap="butt" stroke-linejoin="miter" points="365.299,730.978 137.774,770.672"/>
<text fill="#555555" x="991.002" y="809.451" font-size="15" text-anchor="start" dy="0" font-family="Helvetica">44</text>
<text fill="#0000ff" x="143.081" y="759.771" font-size="15" text-anchor="start" dy="0" font-family="Helvetica">4</text>
<circle fill="#5a5a5a" cx="137.774" cy="770.672" r="2"/>
<circle fill="#0000ff" cx="137.774" cy="770.672" r="2"/>
<text fill="#555555" x="1055.16" y="463.904" font-size="15" text-anchor="start" dy="0" font-family="Helvetica">40</text>
<polyline fill="none" stroke="#000000" stroke-width="1" stroke-linecap="butt" stroke-linejoin="miter" points="1047.88,611.896 1062.45,315.912"/>
<polyline fill="none" stroke="#5c55a0" stroke-width="1" stroke-linecap="butt" stroke-linejoin="miter" points="1047.88,611.896 1062.45,315.912"/>
<polyline fill="none" stroke="#403b70" stroke-width="1" stroke-linecap="butt" stroke-linejoin="miter" points="1047.88,611.896 1062.45,315.912"/>
<polyline fill="none" stroke="#5c55a0" stroke-width="1" stroke-linecap="butt" stroke-linejoin="miter" points="1047.88,611.896 1062.45,315.912"/>
<polyline fill="none" stroke="#9b8fff" stroke-width="1" stroke-linecap="butt" stroke-linejoin="miter" points="934.129,1007.01 820.35,651.59 934.129,1007.01 820.35,651.59"/>
<polyline fill="none" stroke="#262343" stroke-width="1" stroke-linecap="butt" stroke-linejoin="miter" points="934.129,1007.01 820.35,651.59"/>
<text fill="#555555" x="941.399" y="483.751" font-size="15" text-anchor="start" dy="0" font-family="Helvetica">59</text>
<text fill="#555555" x="763.476" y="849.145" font-size="15" text-anchor="start" dy="0" font-family="Helvetica">43</text>
<text fill="#555555" x="649.714" y="868.992" font-size="15" text-anchor="start" dy="0" font-family="Helvetica">30</text>
<polyline fill="none" stroke="#403b70" stroke-width="1" stroke-linecap="butt" stroke-linejoin="miter" points="820.35,651.59 834.922,355.606 820.35,651.59"/>
<polyline fill="none" stroke="#5c55a0" stroke-width="1" stroke-linecap="butt" stroke-linejoin="miter" points="820.35,651.59 834.922,355.606"/>
<polyline fill="none" stroke="#5c55a0" stroke-width="1" stroke-linecap="butt" stroke-linejoin="miter" points="820.35,651.59 834.922,355.606"/>
<polyline fill="none" stroke="#000000" stroke-width="1" stroke-linecap="butt" stroke-linejoin="miter" points="706.603,1046.7 592.824,691.284"/>
<polyline fill="none" stroke="#9b8fff" stroke-width="1" stroke-linecap="butt" stroke-linejoin="miter" points="706.603,1046.7 592.824,691.284 706.603,1046.7"/>
<polyline fill="none" stroke="#5c55a0" stroke-width="1" stroke-linecap="butt" stroke-linejoin="miter" points="706.603,1046.7 592.824,691.284"/>
<polyline fill="none" stroke="#9b8fff" stroke-width="1" stroke-linecap="butt" stroke-linejoin="miter" points="706.603,1046.7 592.824,691.284"/>
<polyline fill="none" stroke="#262343" stroke-width="1" stroke-linecap="butt" stroke-linejoin="miter" points="706.603,1046.7 592.824,691.284"/>
<text fill="#555555" x="713.873" y="523.445" font-size="15" text-anchor="start" dy="0" font-family="Helvetica">58</text>
<text fill="#555555" x="535.951" y="888.839" font-size="15" text-anchor="start" dy="0" font-family="Helvetica">42</text>
<text fill="#555555" x="600.111" y="543.292" font-size="15" text-anchor="start" dy="0" font-family="Helvetica">39</text>
<polyline fill="none" stroke="#000000" stroke-width="1" stroke-linecap="butt" stroke-linejoin="miter" points="592.824,691.284 607.397,395.3"/>
<polyline fill="none" stroke="#5c55a0" stroke-width="1" stroke-linecap="butt" stroke-linejoin="miter" points="592.824,691.284 607.397,395.3"/>
<polyline fill="none" stroke="#403b70" stroke-width="1" stroke-linecap="butt" stroke-linejoin="miter" points="592.824,691.284 607.397,395.3 592.824,691.284"/>
<polyline fill="none" stroke="#5c55a0" stroke-width="1" stroke-linecap="butt" stroke-linejoin="miter" points="592.824,691.284 607.397,395.3"/>
<polyline fill="none" stroke="#5c55a0" stroke-width="1" stroke-linecap="butt" stroke-linejoin="miter" points="592.824,691.284 607.397,395.3"/>
<polyline fill="none" stroke="#9b8fff" stroke-width="1" stroke-linecap="butt" stroke-linejoin="miter" points="479.078,1086.39 365.299,730.978 479.078,1086.39 365.299,730.978"/>
<polyline fill="none" stroke="#262343" stroke-width="1" stroke-linecap="butt" stroke-linejoin="miter" points="479.078,1086.39 365.299,730.978"/>
<text fill="#0000ff" x="1166.96" y="956.411" font-size="15" text-anchor="start" dy="0" font-family="Helvetica">3</text>
<circle fill="#5a5a5a" cx="1161.65" cy="967.312" r="2"/>
<circle fill="#0000ff" cx="1161.65" cy="967.312" r="2"/>
<text fill="#555555" x="486.348" y="563.139" font-size="15" text-anchor="start" dy="0" font-family="Helvetica">57</text>
<text fill="#555555" x="308.426" y="928.533" font-size="15" text-anchor="start" dy="0" font-family="Helvetica">41</text>
<text fill="#555555" x="1047.89" y="987.159" font-size="15" text-anchor="start" dy="0" font-family="Helvetica">16</text>
<text fill="#555555" x="194.663" y="948.38" font-size="15" text-anchor="start" dy="0" font-family="Helvetica">29</text>
<polyline fill="none" stroke="#000000" stroke-width="1" stroke-linecap="butt" stroke-linejoin="miter" points="934.129,1007.01 1161.65,967.312"/>
<polyline fill="none" stroke="#9b8fff" stroke-width="1" stroke-linecap="butt" stroke-linejoin="miter" points="934.129,1007.01 1161.65,967.312"/>
<polyline fill="none" stroke="#403b70" stroke-width="1" stroke-linecap="butt" stroke-linejoin="miter" points="934.129,1007.01 1161.65,967.312"/>
<polyline fill="none" stroke="#9b8fff" stroke-width="1" stroke-linecap="butt" stroke-linejoin="miter" points="934.129,1007.01 1161.65,967.312"/>
<polyline fill="none" stroke="#403b70" stroke-width="1" stroke-linecap="butt" stroke-linejoin="miter" points="365.299,730.978 379.872,434.994 365.299,730.978"/>
<polyline fill="none" stroke="#5c55a0" stroke-width="1" stroke-linecap="butt" stroke-linejoin="miter" points="365.299,730.978 379.872,434.994"/>
<polyline fill="none" stroke="#5c55a0" stroke-width="1" stroke-linecap="butt" stroke-linejoin="miter" points="365.299,730.978 379.872,434.994"/>
<polyline fill="none" stroke="#000000" stroke-width="1" stroke-linecap="butt" stroke-linejoin="miter" points="251.552,1126.09 137.774,770.672"/>
<polyline fill="none" stroke="#9b8fff" stroke-width="1" stroke-linecap="butt" stroke-linejoin="miter" points="137.774,770.672 251.552,1126.09"/>
<polyline fill="none" stroke="#5c55a0" stroke-width="1" stroke-linecap="butt" stroke-linejoin="miter" points="251.552,1126.09 137.774,770.672"/>
<polyline fill="none" stroke="#262343" stroke-width="1" stroke-linecap="butt" stroke-linejoin="miter" points="251.552,1126.09 137.774,770.672"/>
<text fill="#555555" x="1112.05" y="641.612" font-size="15" text-anchor="start" dy="0" font-family="Helvetica">51</text>
<text fill="#0000ff" x="939.436" y="996.105" font-size="15" text-anchor="start" dy="0" font-family="Helvetica">14</text>
<circle fill="#0000ff" cx="934.129" cy="1007.01" r="2"/>
<text fill="#555555" x="258.823" y="602.833" font-size="15" text-anchor="start" dy="0" font-family="Helvetica">56</text>
<text fill="#555555" x="820.366" y="1026.85" font-size="15" text-anchor="start" dy="0" font-family="Helvetica">15</text>
<text fill="#555555" x="145.06" y="622.68" font-size="15" text-anchor="start" dy="0" font-family="Helvetica">38</text>
<polyline fill="none" stroke="#000000" stroke-width="1" stroke-linecap="butt" stroke-linejoin="miter" points="706.603,1046.7 934.129,1007.01"/>
<polyline fill="none" stroke="#9b8fff" stroke-width="1" stroke-linecap="butt" stroke-linejoin="miter" points="706.603,1046.7 934.129,1007.01"/>
<polyline fill="none" stroke="#403b70" stroke-width="1" stroke-linecap="butt" stroke-linejoin="miter" points="706.603,1046.7 934.129,1007.01"/>
<polyline fill="none" stroke="#9b8fff" stroke-width="1" stroke-linecap="butt" stroke-linejoin="miter" points="706.603,1046.7 934.129,1007.01"/>
<polyline fill="none" stroke="#000000" stroke-width="1" stroke-linecap="butt" stroke-linejoin="miter" points="137.774,770.672 152.346,474.688"/>
<polyline fill="none" stroke="#5c55a0" stroke-width="1" stroke-linecap="butt" stroke-linejoin="miter" points="137.774,770.672 152.346,474.688"/>
<polyline fill="none" stroke="#403b70" stroke-width="1" stroke-linecap="butt" stroke-linejoin="miter" points="152.346,474.688 137.774,770.672"/>
<polyline fill="none" stroke="#5c55a0" stroke-width="1" stroke-linecap="butt" stroke-linejoin="miter" points="137.774,770.672 152.346,474.688"/>
<text fill="#0000ff" x="1067.76" y="305.012" font-size="15" text-anchor="start" dy="0" font-family="Helvetica">12</text>
<circle fill="#5a5a5a" cx="1062.45" cy="315.912" r="2"/>
<circle fill="#0000ff" cx="1062.45" cy="315.912" r="2"/>
<text fill="#0000ff" x="711.911" y="1035.8" font-size="15" text-anchor="start" dy="0" font-family="Helvetica">2</text>
<circle fill="#5a5a5a" cx="706.603" cy="1046.7" r="2"/>
<circle fill="#0000ff" cx="706.603" cy="1046.7" r="2"/>
<text fill="#555555" x="948.685" y="335.759" font-size="15" text-anchor="start" dy="0" font-family="Helvetica">28</text>
<text fill="#555555" x="592.841" y="1066.55" font-size="15" text-anchor="start" dy="0" font-family="Helvetica">14</text>
<polyline fill="none" stroke="#000000" stroke-width="1" stroke-linecap="butt" stroke-linejoin="miter" points="834.922,355.606 1062.45,315.912"/>
<polyline fill="none" stroke="#9b8fff" stroke-width="1" stroke-linecap="butt" stroke-linejoin="miter" points="1062.45,315.912 834.922,355.606"/>
<polyline fill="none" stroke="#403b70" stroke-width="1" stroke-linecap="butt" stroke-linejoin="miter" points="1062.45,315.912 834.922,355.606"/>
<polyline fill="none" stroke="#9b8fff" stroke-width="1" stroke-linecap="butt" stroke-linejoin="miter" points="1062.45,315.912 834.922,355.606"/>
<polyline fill="none" stroke="#000000" stroke-width="1" stroke-linecap="butt" stroke-linejoin="miter" points="479.078,1086.39 706.603,1046.7"/>
<polyline fill="none" stroke="#9b8fff" stroke-width="1" stroke-linecap="butt" stroke-linejoin="miter" points="479.078,1086.39 706.603,1046.7"/>
<polyline fill="none" stroke="#403b70" stroke-width="1" stroke-linecap="butt" stroke-linejoin="miter" points="479.078,1086.39 706.603,1046.7"/>
<polyline fill="none" stroke="#9b8fff" stroke-width="1" stroke-linecap="butt" stroke-linejoin="miter" points="479.078,1086.39 706.603,1046.7"/>
<text fill="#0000ff" x="840.23" y="344.706" font-size="15" text-anchor="start" dy="0" font-family="Helvetica">20</text>
<circle fill="#0000ff" cx="834.922" cy="355.606" r="2"/>
<text fill="#555555" x="657" y="721" font-size="15" text-anchor="start" dy="0" font-family="Helvetica">50</text>
<text fill="#0000ff" x="484.386" y="1075.49" font-size="15" text-anchor="start" dy="0" font-family="Helvetica">13</text>
<circle fill="#0000ff" cx="479.078" cy="1086.39" r="2"/>
<text fill="#555555" x="721.159" y="375.453" font-size="15" text-anchor="start" dy="0" font-family="Helvetica">27</text>
<text fill="#555555" x="365.315" y="1106.24" font-size="15" text-anchor="start" dy="0" font-family="Helvetica">13</text>
<polyline fill="none" stroke="#000000" stroke-width="1" stroke-linecap="butt" stroke-linejoin="miter" points="607.397,395.3 834.922,355.606"/>
<polyline fill="none" stroke="#9b8fff" stroke-width="1" stroke-linecap="butt" stroke-linejoin="miter" points="834.922,355.606 607.397,395.3"/>
<polyline fill="none" stroke="#403b70" stroke-width="1" stroke-linecap="butt" stroke-linejoin="miter" points="834.922,355.606 607.397,395.3"/>
<polyline fill="none" stroke="#9b8fff" stroke-width="1" stroke-linecap="butt" stroke-linejoin="miter" points="834.922,355.606 607.397,395.3"/>
<polyline fill="none" stroke="#000000" stroke-width="1" stroke-linecap="butt" stroke-linejoin="miter" points="251.552,1126.09 479.078,1086.39"/>
<polyline fill="none" stroke="#9b8fff" stroke-width="1" stroke-linecap="butt" stroke-linejoin="miter" points="251.552,1126.09 479.078,1086.39"/>
<polyline fill="none" stroke="#403b70" stroke-width="1" stroke-linecap="butt" stroke-linejoin="miter" points="251.552,1126.09 479.078,1086.39"/>
<polyline fill="none" stroke="#9b8fff" stroke-width="1" stroke-linecap="butt" stroke-linejoin="miter" points="251.552,1126.09 479.078,1086.39"/>
<text fill="#0000ff" x="612.705" y="384.4" font-size="15" text-anchor="start" dy="0" font-family="Helvetica">11</text>
<circle fill="#5a5a5a" cx="607.397" cy="395.3" r="2"/>
<circle fill="#0000ff" cx="607.397" cy="395.3" r="2"/>
<text fill="#0000ff" x="256.86" y="1115.19" font-size="15" text-anchor="start" dy="0" font-family="Helvetica">1</text>
<circle fill="#5a5a5a" cx="251.552" cy="1126.09" r="2"/>
<circle fill="#0000ff" cx="251.552" cy="1126.09" r="2"/>
<text fill="#555555" x="1168.94" y="819.32" font-size="15" text-anchor="start" dy="0" font-family="Helvetica">37</text>
<text fill="#555555" x="493.634" y="415.147" font-size="15" text-anchor="start" dy="0" font-family="Helvetica">26</text>
<polyline fill="none" stroke="#000000" stroke-width="1" stroke-linecap="butt" stroke-linejoin="miter" points="1161.65,967.312 1176.23,671.328"/>
<polyline fill="none" stroke="#5c55a0" stroke-width="1" stroke-linecap="butt" stroke-linejoin="miter" points="1176.23,671.328 1161.65,967.312"/>
<polyline fill="none" stroke="#403b70" stroke-width="1" stroke-linecap="butt" stroke-linejoin="miter" points="1161.65,967.312 1176.23,671.328"/>
<polyline fill="none" stroke="#262343" stroke-width="1" stroke-linecap="butt" stroke-linejoin="miter" points="1161.65,967.312 1176.23,671.328"/>
<polyline fill="none" stroke="#000000" stroke-width="1" stroke-linecap="butt" stroke-linejoin="miter" points="379.872,434.994 607.397,395.3"/>
<polyline fill="none" stroke="#9b8fff" stroke-width="1" stroke-linecap="butt" stroke-linejoin="miter" points="607.397,395.3 379.872,434.994"/>
<polyline fill="none" stroke="#403b70" stroke-width="1" stroke-linecap="butt" stroke-linejoin="miter" points="607.397,395.3 379.872,434.994"/>
<polyline fill="none" stroke="#9b8fff" stroke-width="1" stroke-linecap="butt" stroke-linejoin="miter" points="607.397,395.3 379.872,434.994"/>
<text fill="#555555" x="1055.18" y="839.167" font-size="15" text-anchor="start" dy="0" font-family="Helvetica">55</text>
<text fill="#0000ff" x="385.179" y="424.094" font-size="15" text-anchor="start" dy="0" font-family="Helvetica">19</text>
<circle fill="#0000ff" cx="379.872" cy="434.994" r="2"/>
<text fill="#555555" x="201.949" y="800.388" font-size="15" text-anchor="start" dy="0" font-family="Helvetica">49</text>
<text fill="#555555" x="1119.34" y="493.62" font-size="15" text-anchor="start" dy="0" font-family="Helvetica">34</text>
<text fill="#555555" x="266.109" y="454.841" font-size="15" text-anchor="start" dy="0" font-family="Helvetica">25</text>
<polyline fill="none" stroke="#000000" stroke-width="1" stroke-linecap="butt" stroke-linejoin="miter" points="1176.23,671.328 1062.45,315.912"/>
<polyline fill="none" stroke="#9b8fff" stroke-width="1" stroke-linecap="butt" stroke-linejoin="miter" points="1176.23,671.328 1062.45,315.912"/>
<polyline fill="none" stroke="#5c55a0" stroke-width="1" stroke-linecap="butt" stroke-linejoin="miter" points="1062.45,315.912 1176.23,671.328"/>
<polyline fill="none" stroke="#9b8fff" stroke-width="1" stroke-linecap="butt" stroke-linejoin="miter" points="1176.23,671.328 1062.45,315.912"/>
<polyline fill="none" stroke="#403b70" stroke-width="1" stroke-linecap="butt" stroke-linejoin="miter" points="934.129,1007.01 948.701,711.022 934.129,1007.01"/>
<polyline fill="none" stroke="#262343" stroke-width="1" stroke-linecap="butt" stroke-linejoin="miter" points="934.129,1007.01 948.701,711.022"/>
<polyline fill="none" stroke="#262343" stroke-width="1" stroke-linecap="butt" stroke-linejoin="miter" points="934.129,1007.01 948.701,711.022"/>
<polyline fill="none" stroke="#000000" stroke-width="1" stroke-linecap="butt" stroke-linejoin="miter" points="152.346,474.688 379.872,434.994"/>
<polyline fill="none" stroke="#9b8fff" stroke-width="1" stroke-linecap="butt" stroke-linejoin="miter" points="379.872,434.994 152.346,474.688"/>
<polyline fill="none" stroke="#403b70" stroke-width="1" stroke-linecap="butt" stroke-linejoin="miter" points="379.872,434.994 152.346,474.688"/>
<polyline fill="none" stroke="#9b8fff" stroke-width="1" stroke-linecap="butt" stroke-linejoin="miter" points="379.872,434.994 152.346,474.688"/>
<text fill="#555555" x="1005.57" y="513.467" font-size="15" text-anchor="start" dy="0" font-family="Helvetica">48</text>
<text fill="#555555" x="827.652" y="878.861" font-size="15" text-anchor="start" dy="0" font-family="Helvetica">54</text>
<text fill="#0000ff" x="157.654" y="463.788" font-size="15" text-anchor="start" dy="0" font-family="Helvetica">10</text>
<circle fill="#5a5a5a" cx="152.346" cy="474.688" r="2"/>
<circle fill="#0000ff" cx="152.346" cy="474.688" r="2"/>
<text fill="#555555" x="713.889" y="898.708" font-size="15" text-anchor="start" dy="0" font-family="Helvetica">36</text>
<polyline fill="none" stroke="#9b8fff" stroke-width="1" stroke-linecap="butt" stroke-linejoin="miter" points="948.701,711.022 834.922,355.606 948.701,711.022 834.922,355.606"/>
<polyline fill="none" stroke="#262343" stroke-width="1" stroke-linecap="butt" stroke-linejoin="miter" points="948.701,711.022 834.922,355.606"/>
<polyline fill="none" stroke="#000000" stroke-width="1" stroke-linecap="butt" stroke-linejoin="miter" points="706.603,1046.7 721.176,750.716"/>
<polyline fill="none" stroke="#5c55a0" stroke-width="1" stroke-linecap="butt" stroke-linejoin="miter" points="721.176,750.716 706.603,1046.7"/>
<polyline fill="none" stroke="#403b70" stroke-width="1" stroke-linecap="butt" stroke-linejoin="miter" points="706.603,1046.7 721.176,750.716 706.603,1046.7"/>
<polyline fill="none" stroke="#262343" stroke-width="1" stroke-linecap="butt" stroke-linejoin="miter" points="706.603,1046.7 721.176,750.716"/>
<polyline fill="none" stroke="#262343" stroke-width="1" stroke-linecap="butt" stroke-linejoin="miter" points="706.603,1046.7 721.176,750.716"/>
<text fill="#555555" x="778.049" y="553.161" font-size="15" text-anchor="start" dy="0" font-family="Helvetica">47</text>
<text fill="#555555" x="600.127" y="918.555" font-size="15" text-anchor="start" dy="0" font-family="Helvetica">53</text>
<text fill="#555555" x="664.286" y="573.008" font-size="15" text-anchor="start" dy="0" font-family="Helvetica">33</text>
<polyline fill="none" stroke="#000000" stroke-width="1" stroke-linecap="butt" stroke-linejoin="miter" points="721.176,750.716 607.397,395.3"/>
<polyline fill="none" stroke="#9b8fff" stroke-width="1" stroke-linecap="butt" stroke-linejoin="miter" points="721.176,750.716 607.397,395.3 721.176,750.716"/>
<polyline fill="none" stroke="#5c55a0" stroke-width="1" stroke-linecap="butt" stroke-linejoin="miter" points="607.397,395.3 721.176,750.716"/>
<polyline fill="none" stroke="#9b8fff" stroke-width="1" stroke-linecap="butt" stroke-linejoin="miter" points="721.176,750.716 607.397,395.3"/>
<polyline fill="none" stroke="#262343" stroke-width="1" stroke-linecap="butt" stroke-linejoin="miter" points="721.176,750.716 607.397,395.3"/>
<polyline fill="none" stroke="#403b70" stroke-width="1" stroke-linecap="butt" stroke-linejoin="miter" points="479.078,1086.39 493.65,790.41 479.078,1086.39"/>
<polyline fill="none" stroke="#262343" stroke-width="1" stroke-linecap="butt" stroke-linejoin="miter" points="479.078,1086.39 493.65,790.41"/>
<polyline fill="none" stroke="#262343" stroke-width="1" stroke-linecap="butt" stroke-linejoin="miter" points="479.078,1086.39 493.65,790.41"/>
<text fill="#555555" x="550.524" y="592.855" font-size="15" text-anchor="start" dy="0" font-family="Helvetica">46</text>
<text fill="#555555" x="372.601" y="958.249" font-size="15" text-anchor="start" dy="0" font-family="Helvetica">52</text>
<text fill="#555555" x="258.839" y="978.096" font-size="15" text-anchor="start" dy="0" font-family="Helvetica">35</text>
<polyline fill="none" stroke="#9b8fff" stroke-width="1" stroke-linecap="butt" stroke-linejoin="miter" points="493.65,790.41 379.872,434.994 493.65,790.41 379.872,434.994"/>
<polyline fill="none" stroke="#262343" stroke-width="1" stroke-linecap="butt" stroke-linejoin="miter" points="493.65,790.41 379.872,434.994"/>
<polyline fill="none" stroke="#000000" stroke-width="1" stroke-linecap="butt" stroke-linejoin="miter" points="251.552,1126.09 266.125,830.104"/>
<polyline fill="none" stroke="#5c55a0" stroke-width="1" stroke-linecap="butt" stroke-linejoin="miter" points="266.125,830.104 251.552,1126.09"/>
<polyline fill="none" stroke="#403b70" stroke-width="1" stroke-linecap="butt" stroke-linejoin="miter" points="266.125,830.104 251.552,1126.09"/>
<polyline fill="none" stroke="#262343" stroke-width="1" stroke-linecap="butt" stroke-linejoin="miter" points="251.552,1126.09 266.125,830.104"/>
<text fill="#0000ff" x="1181.53" y="660.428" font-size="15" text-anchor="start" dy="0" font-family="Helvetica">9</text>
<circle fill="#5a5a5a" cx="1176.23" cy="671.328" r="2"/>
<circle fill="#0000ff" cx="1176.23" cy="671.328" r="2"/>
<text fill="#555555" x="322.998" y="632.549" font-size="15" text-anchor="start" dy="0" font-family="Helvetica">45</text>
<text fill="#555555" x="1062.46" y="691.175" font-size="15" text-anchor="start" dy="0" font-family="Helvetica">24</text>
<text fill="#555555" x="209.236" y="652.396" font-size="15" text-anchor="start" dy="0" font-family="Helvetica">32</text>
<polyline fill="none" stroke="#000000" stroke-width="1" stroke-linecap="butt" stroke-linejoin="miter" points="948.701,711.022 1176.23,671.328"/>
<polyline fill="none" stroke="#9b8fff" stroke-width="1" stroke-linecap="butt" stroke-linejoin="miter" points="948.701,711.022 1176.23,671.328"/>
<polyline fill="none" stroke="#403b70" stroke-width="1" stroke-linecap="butt" stroke-linejoin="miter" points="1176.23,671.328 948.701,711.022"/>
<polyline fill="none" stroke="#9b8fff" stroke-width="1" stroke-linecap="butt" stroke-linejoin="miter" points="948.701,711.022 1176.23,671.328"/>
<polyline fill="none" stroke="#000000" stroke-width="1" stroke-linecap="butt" stroke-linejoin="miter" points="266.125,830.104 152.346,474.688"/>
<polyline fill="none" stroke="#9b8fff" stroke-width="1" stroke-linecap="butt" stroke-linejoin="miter" points="152.346,474.688 266.125,830.104"/>
<polyline fill="none" stroke="#5c55a0" stroke-width="1" stroke-linecap="butt" stroke-linejoin="miter" points="152.346,474.688 266.125,830.104"/>
<polyline fill="none" stroke="#262343" stroke-width="1" stroke-linecap="butt" stroke-linejoin="miter" points="266.125,830.104 152.346,474.688"/>
<text fill="#0000ff" x="954.009" y="700.122" font-size="15" text-anchor="start" dy="0" font-family="Helvetica">18</text>
<circle fill="#0000ff" cx="948.701" cy="711.022" r="2"/>
<text fill="#555555" x="834.938" y="730.869" font-size="15" text-anchor="start" dy="0" font-family="Helvetica">23</text>
<polyline fill="none" stroke="#000000" stroke-width="1" stroke-linecap="butt" stroke-linejoin="miter" points="721.176,750.716 948.701,711.022"/>
<polyline fill="none" stroke="#9b8fff" stroke-width="1" stroke-linecap="butt" stroke-linejoin="miter" points="721.176,750.716 948.701,711.022"/>
<polyline fill="none" stroke="#403b70" stroke-width="1" stroke-linecap="butt" stroke-linejoin="miter" points="948.701,711.022 721.176,750.716"/>
<polyline fill="none" stroke="#9b8fff" stroke-width="1" stroke-linecap="butt" stroke-linejoin="miter" points="721.176,750.716 948.701,711.022"/>
<text fill="#0000ff" x="726.484" y="739.816" font-size="15" text-anchor="start" dy="0" font-family="Helvetica">8</text>
<circle fill="#5a5a5a" cx="721.176" cy="750.716" r="2"/>
<circle fill="#0000ff" cx="721.176" cy="750.716" r="2"/>
<text fill="#555555" x="607.413" y="770.563" font-size="15" text-anchor="start" dy="0" font-family="Helvetica">22</text>
<polyline fill="none" stroke="#000000" stroke-width="1" stroke-linecap="butt" stroke-linejoin="miter" points="493.65,790.41 721.176,750.716"/>
<polyline fill="none" stroke="#9b8fff" stroke-width="1" stroke-linecap="butt" stroke-linejoin="miter" points="493.65,790.41 721.176,750.716"/>
<polyline fill="none" stroke="#403b70" stroke-width="1" stroke-linecap="butt" stroke-linejoin="miter" points="721.176,750.716 493.65,790.41"/>
<polyline fill="none" stroke="#9b8fff" stroke-width="1" stroke-linecap="butt" stroke-linejoin="miter" points="493.65,790.41 721.176,750.716"/>
<text fill="#0000ff" x="498.958" y="779.51" font-size="15" text-anchor="start" dy="0" font-family="Helvetica">17</text>
<circle fill="#0000ff" cx="493.65" cy="790.41" r="2"/>
<text fill="#555555" x="379.888" y="810.257" font-size="15" text-anchor="start" dy="0" font-family="Helvetica">21</text>
<polyline fill="none" stroke="#000000" stroke-width="1" stroke-linecap="butt" stroke-linejoin="miter" points="266.125,830.104 493.65,790.41"/>
<polyline fill="none" stroke="#9b8fff" stroke-width="1" stroke-linecap="butt" stroke-linejoin="miter" points="266.125,830.104 493.65,790.41"/>
<polyline fill="none" stroke="#403b70" stroke-width="1" stroke-linecap="butt" stroke-linejoin="miter" points="493.65,790.41 266.125,830.104"/>
<polyline fill="none" stroke="#9b8fff" stroke-width="1" stroke-linecap="butt" stroke-linejoin="miter" points="266.125,830.104 493.65,790.41"/>
<text fill="#0000ff" x="271.433" y="819.204" font-size="15" text-anchor="start" dy="0" font-family="Helvetica">7</text>
<circle fill="#5a5a5a" cx="266.125" cy="830.104" r="2"/>
<circle fill="#0000ff" cx="266.125" cy="830.104" r="2"/>
</g>
</svg>
