<?xml version="1.0" encoding="UTF-8" standalone="no"?>
<svg xmlns="http://www.w3.org/2000/svg"
     xmlns:xlink="http://www.w3.org/1999/xlink"
     width="1314pt" height="1442pt" viewBox="0 0 1314 1442">
<title>very_small_quad4_mesh</title>
<desc>
Creator: GL2PS 1.4.3, (C) 1999-2020 C. Geuzaine
For: Gmsh
CreationDate: Sat May 31 00:18:11 2025
</desc>
<defs>
</defs>
<g>
<circle fill="#5a5a5a" cx="187.714" cy="1190.29" r="2"/>
<circle fill="#5a5a5a" cx="1126.29" cy="1190.29" r="2"/>
<circle fill="#5a5a5a" cx="187.714" cy="251.714" r="2"/>
<circle fill="#5a5a5a" cx="1126.29" cy="251.714" r="2"/>
<circle fill="#0000ff" cx="187.714" cy="1190.29" r="2"/>
<circle fill="#0000ff" cx="1126.29" cy="1190.29" r="2"/>
<circle fill="#0000ff" cx="187.714" cy="251.714" r="2"/>
<circle fill="#0000ff" cx="1126.29" cy="251.714" r="2"/>
<text fill="#555555" x="422.357" y="1190.29" font-size="15" text-anchor="start" dy="0" font-family="Helvetica">5</text>
<text fill="#555555" x="891.643" y="1190.29" font-size="15" text-anchor="start" dy="0" font-family="Helvetica">6</text>
<circle fill="#0000ff" cx="657" cy="1190.29" r="2"/>
<text fill="#555555" x="422.357" y="251.714" font-size="15" text-anchor="start" dy="0" font-family="Helvetica">7</text>
<text fill="#555555" x="891.643" y="251.714" font-size="15" text-anchor="start" dy="0" font-family="Helvetica">8</text>
<circle fill="#0000ff" cx="657" cy="251.714" r="2"/>
<text fill="#555555" x="187.714" y="955.643" font-size="15" text-anchor="start" dy="0" font-family="Helvetica">9</text>
<text fill="#555555" x="187.714" y="486.357" font-size="15" text-anchor="start" dy="0" font-family="Helvetica">10</text>
<circle fill="#0000ff" cx="187.714" cy="721" r="2"/>
<text fill="#555555" x="1126.29" y="955.643" font-size="15" text-anchor="start" dy="0" font-family="Helvetica">11</text>
<text fill="#555555" x="1126.29" y="486.357" font-size="15" text-anchor="start" dy="0" font-family="Helvetica">12</text>
<circle fill="#0000ff" cx="1126.29" cy="721" r="2"/>
<text fill="#555555" x="422.357" y="955.643" font-size="15" text-anchor="start" dy="0" font-family="Helvetica">13</text>
<text fill="#555555" x="422.357" y="486.357" font-size="15" text-anchor="start" dy="0" font-family="Helvetica">14</text>
<text fill="#555555" x="891.643" y="955.643" font-size="15" text-anchor="start" dy="0" font-family="Helvetica">15</text>
<text fill="#555555" x="891.643" y="486.357" font-size="15" text-anchor="start" dy="0" font-family="Helvetica">16</text>
<circle fill="#0000ff" cx="657" cy="721" r="2"/>
<polyline fill="none" stroke="#000000" stroke-width="1" stroke-linecap="butt" stroke-linejoin="miter" points="187.714,1190.29 657,1190.29 1126.29,1190.29"/>
<polyline fill="none" stroke="#000000" stroke-width="1" stroke-linecap="butt" stroke-linejoin="miter" points="187.714,251.714 657,251.714 1126.29,251.714"/>
<polyline fill="none" stroke="#000000" stroke-width="1" stroke-linecap="butt" stroke-linejoin="miter" points="187.714,1190.29 187.714,721 187.714,251.714"/>
<polyline fill="none" stroke="#000000" stroke-width="1" stroke-linecap="butt" stroke-linejoin="miter" points="1126.29,1190.29 1126.29,721 1126.29,251.714"/>
<polyline fill="none" stroke="#8c82ee" stroke-width="1" stroke-linecap="butt" stroke-linejoin="miter" points="187.714,1190.29 657,1190.29 657,721 187.714,721 187.714,1190.29"/>
<polyline fill="none" stroke="#8c82ee" stroke-width="1" stroke-linecap="butt" stroke-linejoin="miter" points="187.714,721 657,721 657,251.714 187.714,251.714 187.714,721"/>
<polyline fill="none" stroke="#8c82ee" stroke-width="1" stroke-linecap="butt" stroke-linejoin="miter" points="657,1190.29 1126.29,1190.29 1126.29,721 657,721 657,1190.29"/>
<polyline fill="none" stroke="#8c82ee" stroke-width="1" stroke-linecap="butt" stroke-linejoin="miter" points="657,721 1126.29,721 1126.29,251.714 657,251.714 657,721"/>
<text fill="#0000ff" x="194.714" y="1183.29" font-size="15" text-anchor="start" dy="0" font-family="Helvetica">1</text>
<text fill="#0000ff" x="1133.29" y="1183.29" font-size="15" text-anchor="start" dy="0" font-family="Helvetica">2</text>
<text fill="#0000ff" x="194.714" y="244.714" font-size="15" text-anchor="start" dy="0" font-family="Helvetica">3</text>
<text fill="#0000ff" x="1133.29" y="244.714" font-size="15" text-anchor="start" dy="0" font-family="Helvetica">4</text>
<text fill="#0000ff" x="664" y="1183.29" font-size="15" text-anchor="start" dy="0" font-family="Helvetica">5</text>
<text fill="#0000ff" x="664" y="244.714" font-size="15" text-anchor="start" dy="0" font-family="Helvetica">6</text>
<text fill="#0000ff" x="194.714" y="714" font-size="15" text-anchor="start" dy="0" font-family="Helvetica">7</text>
<text fill="#0000ff" x="1133.29" y="714" font-size="15" text-anchor="start" dy="0" font-family="Helvetica">8</text>
<text fill="#0000ff" x="664" y="714" font-size="15" text-anchor="start" dy="0" font-family="Helvetica">9</text>
</g>
</svg>
