<?xml version="1.0" encoding="UTF-8" standalone="no"?>
<svg xmlns="http://www.w3.org/2000/svg"
     xmlns:xlink="http://www.w3.org/1999/xlink"
     width="657pt" height="721pt" viewBox="0 0 657 721">
<title>square_3x3</title>
<desc>
Creator: GL2PS 1.4.3, (C) 1999-2020 C. Geuzaine
For: Gmsh
CreationDate: Thu Oct  2 14:22:38 2025
</desc>
<defs>
</defs>
<g>
<circle fill="#5a5a5a" cx="93.8571" cy="595.143" r="2"/>
<circle fill="#5a5a5a" cx="563.143" cy="595.143" r="2"/>
<circle fill="#5a5a5a" cx="563.143" cy="125.857" r="2"/>
<circle fill="#5a5a5a" cx="93.8571" cy="125.857" r="2"/>
<circle fill="#0000ff" cx="93.8571" cy="595.143" r="2"/>
<circle fill="#0000ff" cx="563.143" cy="595.143" r="2"/>
<circle fill="#0000ff" cx="563.143" cy="125.857" r="2"/>
<circle fill="#0000ff" cx="93.8571" cy="125.857" r="2"/>
<circle fill="#0000ff" cx="328.5" cy="595.143" r="2"/>
<circle fill="#0000ff" cx="563.143" cy="360.5" r="2"/>
<circle fill="#0000ff" cx="328.5" cy="125.857" r="2"/>
<circle fill="#0000ff" cx="93.8571" cy="360.5" r="2"/>
<text fill="#555555" x="211.179" y="477.821" font-size="15" text-anchor="start" dy="0" font-family="Helvetica">13</text>
<text fill="#555555" x="211.179" y="243.179" font-size="15" text-anchor="start" dy="0" font-family="Helvetica">14</text>
<text fill="#555555" x="445.821" y="477.821" font-size="15" text-anchor="start" dy="0" font-family="Helvetica">15</text>
<text fill="#555555" x="445.821" y="243.179" font-size="15" text-anchor="start" dy="0" font-family="Helvetica">16</text>
<circle fill="#0000ff" cx="328.5" cy="360.5" r="2"/>
<polyline fill="none" stroke="#000000" stroke-width="1" stroke-linecap="butt" stroke-linejoin="miter" points="93.8571,595.143 328.5,595.143 563.143,595.143 563.143,360.5 563.143,125.857 328.5,125.857 93.8571,125.857 93.8571,360.5 93.8571,595.143"/>
<polyline fill="none" stroke="#8c82ee" stroke-width="1" stroke-linecap="butt" stroke-linejoin="miter" points="93.8571,595.143 328.5,595.143 328.5,360.5 93.8571,360.5 93.8571,595.143"/>
<polyline fill="none" stroke="#8c82ee" stroke-width="1" stroke-linecap="butt" stroke-linejoin="miter" points="93.8571,360.5 328.5,360.5 328.5,125.857 93.8571,125.857 93.8571,360.5"/>
<polyline fill="none" stroke="#8c82ee" stroke-width="1" stroke-linecap="butt" stroke-linejoin="miter" points="328.5,595.143 563.143,595.143 563.143,360.5 328.5,360.5 328.5,595.143"/>
<polyline fill="none" stroke="#8c82ee" stroke-width="1" stroke-linecap="butt" stroke-linejoin="miter" points="328.5,360.5 563.143,360.5 563.143,125.857 328.5,125.857 328.5,360.5"/>
<text fill="#0000ff" x="97.3571" y="591.643" font-size="15" text-anchor="start" dy="0" font-family="Helvetica">1</text>
<text fill="#0000ff" x="566.643" y="591.643" font-size="15" text-anchor="start" dy="0" font-family="Helvetica">2</text>
<text fill="#0000ff" x="566.643" y="122.357" font-size="15" text-anchor="start" dy="0" font-family="Helvetica">3</text>
<text fill="#0000ff" x="97.3571" y="122.357" font-size="15" text-anchor="start" dy="0" font-family="Helvetica">4</text>
<text fill="#0000ff" x="332" y="591.643" font-size="15" text-anchor="start" dy="0" font-family="Helvetica">5</text>
<text fill="#0000ff" x="566.643" y="357" font-size="15" text-anchor="start" dy="0" font-family="Helvetica">6</text>
<text fill="#0000ff" x="332" y="122.357" font-size="15" text-anchor="start" dy="0" font-family="Helvetica">7</text>
<text fill="#0000ff" x="97.3571" y="357" font-size="15" text-anchor="start" dy="0" font-family="Helvetica">8</text>
<text fill="#0000ff" x="332" y="357" font-size="15" text-anchor="start" dy="0" font-family="Helvetica">9</text>
</g>
</svg>
